# Blender v2.79 (sub 0) OBJ File: 'car_lab.blend'
# www.blender.org
o Plane_Plane.007
v 5.692901 -2.140546 10.604336
v 5.692901 -2.140546 0.692287
v 5.692901 3.691564 10.604336
v 5.692901 3.691564 0.692287
v 4.875234 -2.140546 10.604336
v 4.875234 3.691564 10.604336
v 4.875234 -2.140546 11.104445
v 4.875234 3.691564 11.104445
v 5.692901 -2.140546 11.104465
v 5.692901 3.691564 11.104465
v 5.692901 -2.140546 21.842360
v 5.692901 3.691564 21.842360
v 4.965654 -2.140546 0.692287
v 4.965654 3.691564 0.692287
v 4.965654 -2.140546 0.446524
v 4.965654 3.691564 0.446524
v -5.400266 -2.140546 0.446524
v -5.400266 3.691564 0.446524
v -5.194772 -2.140546 21.842360
v -5.194772 3.691564 21.842360
vt 1.196985 -1.554664
vt 1.197003 1.684299
vt 6.701832 1.684268
vt 6.701814 -1.554695
vt 0.742880 -1.554661
vt 0.742898 1.684303
vt 0.465137 -1.554660
vt 0.465152 1.684304
vt 0.011033 -1.554658
vt -5.952442 -1.554632
vt -5.952428 1.684331
vt 0.011047 1.684306
vt 7.105722 1.684266
vt 7.105704 -1.554698
vt 7.242205 1.684266
vt 7.242191 -1.554698
vt 12.999100 1.684243
vt 12.999086 -1.554722
vt -11.999100 -1.554606
vt -11.999086 1.684358
vn -1.0000 0.0000 0.0000
vn 0.0000 0.0000 -1.0000
vn -0.0000 0.0000 1.0000
s off
f 1/1/1 3/2/1 4/3/1 2/4/1
f 1/1/2 5/5/2 6/6/2 3/2/2
f 5/5/1 7/7/1 8/8/1 6/6/1
f 9/9/1 11/10/1 12/11/1 10/12/1
f 7/7/3 9/9/3 10/12/3 8/8/3
f 4/3/3 14/13/3 13/14/3 2/4/3
f 14/13/1 16/15/1 15/16/1 13/14/1
f 16/15/3 18/17/3 17/18/3 15/16/3
f 11/10/2 19/19/2 20/20/2 12/11/2
