# Blender v2.79 (sub 0) OBJ File: 'car.blend'
# www.blender.org
mtllib left_wheel.mtl
o Cylinder.009_Cylinder.010
v 0.000000 0.470866 0.306292
v 0.000000 0.470865 0.050689
v 0.180192 0.435023 0.306292
v 0.180192 0.435023 0.050689
v 0.332952 0.332952 0.306292
v 0.332952 0.332952 0.050689
v 0.435023 0.180192 0.306292
v 0.435023 0.180192 0.050689
v 0.470865 0.000000 0.306292
v 0.470865 -0.000000 0.050689
v 0.435023 -0.180192 0.306292
v 0.435023 -0.180192 0.050689
v 0.332952 -0.332952 0.306292
v 0.332952 -0.332952 0.050689
v 0.180192 -0.435023 0.306292
v 0.180192 -0.435023 0.050689
v 0.000000 -0.470865 0.306292
v 0.000000 -0.470865 0.050689
v -0.180192 -0.435023 0.306292
v -0.180192 -0.435023 0.050689
v -0.332952 -0.332952 0.306292
v -0.332952 -0.332952 0.050689
v -0.435023 -0.180192 0.306292
v -0.435023 -0.180192 0.050689
v -0.470865 0.000000 0.306292
v -0.470865 0.000000 0.050689
v -0.435023 0.180193 0.306292
v -0.435023 0.180193 0.050689
v -0.332952 0.332952 0.306292
v -0.332952 0.332952 0.050689
v -0.180192 0.435023 0.306292
v -0.180192 0.435023 0.050689
v -0.000000 0.456493 -0.001073
v 0.174692 0.421745 -0.001073
v 0.322789 0.322789 -0.001073
v 0.421745 0.174692 -0.001073
v 0.456493 -0.000000 -0.001073
v 0.421745 -0.174692 -0.001072
v 0.322789 -0.322789 -0.001072
v 0.174692 -0.421745 -0.001072
v 0.000000 -0.456493 -0.001072
v -0.174692 -0.421745 -0.001072
v -0.322789 -0.322790 -0.001072
v -0.421745 -0.174692 -0.001072
v -0.456493 0.000000 -0.001073
v -0.421745 0.174693 -0.001073
v -0.322789 0.322790 -0.001073
v -0.174692 0.421745 -0.001073
v 0.000000 0.447127 0.343881
v 0.171108 0.413091 0.343881
v 0.316166 0.316166 0.343881
v 0.413091 0.171108 0.343881
v 0.447127 0.000000 0.343881
v 0.413091 -0.171108 0.343881
v 0.316166 -0.316166 0.343881
v 0.171108 -0.413091 0.343881
v 0.000000 -0.447127 0.343881
v -0.171108 -0.413091 0.343881
v -0.316166 -0.316166 0.343881
v -0.413091 -0.171108 0.343881
v -0.447127 0.000000 0.343881
v -0.413091 0.171108 0.343881
v -0.316166 0.316166 0.343881
v -0.171108 0.413091 0.343881
v 0.000000 0.437658 -0.022640
v 0.167484 0.404343 -0.022640
v 0.309471 0.309471 -0.022640
v 0.404343 0.167484 -0.022640
v 0.437658 0.000000 -0.022640
v 0.404343 -0.167484 -0.022640
v 0.309471 -0.309471 -0.022640
v 0.167484 -0.404343 -0.022640
v 0.000000 -0.437658 -0.022640
v -0.167484 -0.404343 -0.022640
v -0.309471 -0.309471 -0.022640
v -0.404343 -0.167484 -0.022640
v -0.437658 0.000000 -0.022640
v -0.404343 0.167485 -0.022640
v -0.309471 0.309471 -0.022640
v -0.167484 0.404343 -0.022640
v 0.000000 0.414505 -0.006807
v 0.158624 0.382953 -0.006807
v 0.293099 0.293099 -0.006807
v 0.382953 0.158624 -0.006807
v 0.414505 0.000000 -0.006807
v 0.382953 -0.158624 -0.006807
v 0.293099 -0.293099 -0.006807
v 0.158624 -0.382953 -0.006807
v 0.000000 -0.414505 -0.006807
v -0.158624 -0.382953 -0.006807
v -0.293099 -0.293099 -0.006807
v -0.382953 -0.158624 -0.006807
v -0.414505 0.000000 -0.006807
v -0.382953 0.158624 -0.006807
v -0.293099 0.293100 -0.006807
v -0.158624 0.382953 -0.006807
v 0.000000 0.205259 0.041976
v 0.078549 0.189634 0.041976
v 0.145140 0.145140 0.041976
v 0.189634 0.078549 0.041976
v 0.205259 0.000000 0.041976
v 0.189634 -0.078549 0.041976
v 0.145140 -0.145140 0.041976
v 0.078549 -0.189634 0.041976
v 0.000000 -0.205259 0.041976
v -0.078549 -0.189634 0.041976
v -0.145140 -0.145140 0.041976
v -0.189634 -0.078549 0.041976
v -0.205259 0.000000 0.041976
v -0.189634 0.078549 0.041976
v -0.145140 0.145140 0.041976
v -0.078549 0.189635 0.041976
v 0.000000 0.054704 0.057381
v 0.020934 0.050540 0.057381
v 0.038681 0.038681 0.057381
v 0.050540 0.020934 0.057381
v 0.054704 0.000000 0.057381
v 0.050540 -0.020934 0.057381
v 0.038681 -0.038681 0.057381
v 0.020934 -0.050540 0.057381
v 0.000000 -0.054704 0.057381
v -0.020934 -0.050540 0.057381
v -0.038681 -0.038681 0.057381
v -0.050540 -0.020934 0.057381
v -0.054704 0.000000 0.057381
v -0.050540 0.020934 0.057381
v -0.038681 0.038681 0.057381
v -0.020934 0.050540 0.057381
v 0.000000 0.054704 0.028996
v 0.020934 0.050540 0.028996
v 0.038681 0.038681 0.028996
v 0.050540 0.020934 0.028996
v 0.054704 0.000000 0.028996
v 0.050540 -0.020934 0.028996
v 0.038681 -0.038681 0.028996
v 0.020934 -0.050540 0.028996
v 0.000000 -0.054704 0.028996
v -0.020934 -0.050540 0.028996
v -0.038681 -0.038681 0.028996
v -0.050540 -0.020934 0.028996
v -0.054704 0.000000 0.028996
v -0.050540 0.020934 0.028996
v -0.038681 0.038681 0.028996
v -0.020934 0.050540 0.028996
v 0.000000 0.000000 0.000000
v 0.000000 0.413901 0.343881
v 0.158393 0.382395 0.343881
v 0.292672 0.292673 0.343881
v 0.382395 0.158393 0.343881
v 0.413901 0.000000 0.343881
v 0.382395 -0.158393 0.343881
v 0.292672 -0.292672 0.343881
v 0.158393 -0.382395 0.343881
v 0.000000 -0.413901 0.343881
v -0.158393 -0.382395 0.343881
v -0.292672 -0.292673 0.343881
v -0.382395 -0.158393 0.343881
v -0.413901 0.000000 0.343881
v -0.382395 0.158393 0.343881
v -0.292672 0.292673 0.343881
v -0.158393 0.382395 0.343881
v 0.000000 0.387489 0.117938
v 0.148285 0.357993 0.117938
v 0.273996 0.273996 0.117938
v 0.357993 0.148286 0.117939
v 0.387489 0.000000 0.117939
v 0.357993 -0.148285 0.117939
v 0.273996 -0.273996 0.117939
v 0.148285 -0.357993 0.117939
v 0.000000 -0.387489 0.117939
v -0.148285 -0.357993 0.117939
v -0.273996 -0.273996 0.117939
v -0.357993 -0.148285 0.117939
v -0.387489 0.000000 0.117939
v -0.357993 0.148286 0.117939
v -0.273996 0.273996 0.117938
v -0.148285 0.357993 0.117938
vt 0.438299 0.693914
vt 0.419899 0.711938
vt 0.445775 0.737636
vt 0.463032 0.718206
vt 0.397782 0.729805
vt 0.428591 0.759870
vt 0.694081 0.435009
vt 0.674630 0.458083
vt 0.700735 0.486898
vt 0.725516 0.468950
vt 0.655159 0.477604
vt 0.679791 0.504773
vt 0.635960 0.495961
vt 0.660210 0.522525
vt 0.617028 0.513972
vt 0.641210 0.540194
vt 0.598329 0.531897
vt 0.622529 0.557838
vt 0.579843 0.549816
vt 0.604080 0.575487
vt 0.561559 0.567753
vt 0.585836 0.593156
vt 0.543474 0.585714
vt 0.567790 0.610848
vt 0.525584 0.603698
vt 0.549936 0.628566
vt 0.507887 0.621705
vt 0.532270 0.646309
vt 0.490375 0.639731
vt 0.514783 0.664083
vt 0.473021 0.657775
vt 0.497452 0.681911
vt 0.468700 0.723279
vt 0.485705 0.704996
vt 0.480230 0.699872
vt 0.455746 0.675837
vt 0.669370 0.453389
vt 0.650362 0.472779
vt 0.627856 0.563408
vt 0.630755 0.566491
vt 0.649426 0.548973
vt 0.646534 0.545845
vt 0.685097 0.510800
vt 0.705953 0.493522
vt 0.591178 0.598600
vt 0.609414 0.580992
vt 0.502857 0.687080
vt 0.520161 0.669301
vt 0.435832 0.764796
vt 0.451907 0.742566
vt 0.537635 0.651580
vt 0.555292 0.633893
vt 0.665531 0.528301
vt 0.573139 0.616234
vt 0.730399 0.477172
vt 0.485781 0.635313
vt 0.482245 0.631820
vt 0.464894 0.649923
vt 0.468427 0.653390
vt 0.575273 0.545156
vt 0.556985 0.563143
vt 0.415517 0.707013
vt 0.393935 0.723532
vt 0.612450 0.509211
vt 0.593762 0.527186
vt 0.520998 0.599188
vt 0.503297 0.617242
vt 0.631331 0.491155
vt 0.538893 0.581154
vt 0.451161 0.671448
vt 0.687570 0.430646
vt 0.433753 0.689411
vt 0.439910 0.766989
vt 0.443953 0.768945
vt 0.458655 0.747865
vt 0.455275 0.745221
vt 0.488692 0.707823
vt 0.505802 0.689938
vt 0.612316 0.584039
vt 0.471793 0.726060
vt 0.594085 0.601613
vt 0.576050 0.619215
vt 0.708657 0.497172
vt 0.732524 0.481603
vt 0.558209 0.636843
vt 0.687944 0.514141
vt 0.540557 0.654498
vt 0.668412 0.531500
vt 0.523090 0.672189
vt 0.919326 0.784598
vt 0.902169 0.826020
vt 0.916437 0.835553
vt 0.948139 0.803851
vt 0.578983 0.622249
vt 0.597013 0.604680
vt 0.711315 0.500864
vt 0.734427 0.485974
vt 0.561146 0.639844
vt 0.690781 0.517530
vt 0.543500 0.657468
vt 0.671302 0.534753
vt 0.526042 0.675127
vt 0.652335 0.552156
vt 0.508770 0.692845
vt 0.633672 0.569628
vt 0.491700 0.710691
vt 0.615239 0.587139
vt 0.474905 0.728864
vt 0.841359 0.866651
vt 0.873617 0.866651
vt 0.874509 0.862166
vt 0.844706 0.849821
vt 0.851351 0.948705
vt 0.868508 0.907283
vt 0.854240 0.897750
vt 0.822538 0.929452
vt 0.885338 0.777838
vt 0.885338 0.822672
vt 0.919326 0.948705
vt 0.902169 0.907283
vt 0.885338 0.910631
vt 0.885338 0.955465
vt 0.851351 0.784598
vt 0.868508 0.826020
vt 0.948139 0.929452
vt 0.916437 0.897750
vt 0.822538 0.803851
vt 0.854240 0.835553
vt 0.967391 0.900639
vt 0.925970 0.883482
vt 0.803285 0.832664
vt 0.974152 0.866651
vt 0.929318 0.866651
vt 0.796525 0.866651
vt 0.967391 0.832664
vt 0.925970 0.849821
vt 0.803285 0.900639
vt 0.844706 0.883482
vt 0.877050 0.858363
vt 0.877050 0.858363
vt 0.880853 0.855823
vt 0.880853 0.855823
vt 0.896167 0.862166
vt 0.897059 0.866651
vt 0.874509 0.871137
vt 0.893626 0.858363
vt 0.877050 0.874940
vt 0.889824 0.855823
vt 0.880853 0.877480
vt 0.885338 0.854930
vt 0.889824 0.877480
vt 0.885338 0.878373
vt 0.893626 0.874940
vt 0.896167 0.871137
vt 0.885338 0.866651
vt 0.896167 0.871137
vt 0.893626 0.874940
vt 0.874509 0.862166
vt 0.897059 0.866651
vt 0.873617 0.866651
vt 0.896167 0.862166
vt 0.874509 0.871137
vt 0.893626 0.858363
vt 0.877050 0.874940
vt 0.889824 0.855823
vt 0.880853 0.877480
vt 0.885338 0.854930
vt 0.889824 0.877480
vt 0.885338 0.878373
vt 0.980243 0.827913
vt 0.974125 0.830447
vt 0.953063 0.798926
vt 0.957746 0.794243
vt 0.608928 0.505455
vt 0.590248 0.523465
vt 0.447646 0.667979
vt 0.571758 0.541473
vt 0.430299 0.685863
vt 0.412285 0.703174
vt 0.553464 0.559499
vt 0.391623 0.718739
vt 0.535368 0.577549
vt 0.682387 0.427976
vt 0.665303 0.449776
vt 0.517468 0.595621
vt 0.646678 0.469012
vt 0.499762 0.613714
vt 0.627771 0.487374
vt 0.884362 0.964787
vt 0.847181 0.957391
vt 0.815660 0.936330
vt 0.794599 0.904809
vt 0.787203 0.867628
vt 0.794599 0.830447
vt 0.815660 0.798926
vt 0.847181 0.777865
vt 0.884362 0.770469
vt 0.921543 0.777865
vt 0.981521 0.867628
vt 0.974125 0.904809
vt 0.953063 0.936330
vt 0.921543 0.957391
vt 0.788480 0.907344
vt 0.810977 0.941013
vt 0.924077 0.771746
vt 0.844646 0.963510
vt 0.884362 0.763846
vt 0.884362 0.971409
vt 0.924077 0.963510
vt 0.844646 0.771746
vt 0.957746 0.941013
vt 0.810977 0.794243
vt 0.980243 0.907344
vt 0.788480 0.827913
vt 0.988143 0.867628
vt 0.780580 0.867628
vn 0.0000 0.9631 0.2691
vn 0.3685 0.8898 0.2691
vn 0.3793 0.9157 -0.1328
vn 0.0000 0.9911 -0.1328
vn 0.6810 0.6810 0.2691
vn 0.7008 0.7008 -0.1328
vn 0.8898 0.3685 0.2691
vn 0.9157 0.3793 -0.1328
vn 0.9631 0.0000 0.2691
vn 0.9911 0.0000 -0.1328
vn 0.8898 -0.3685 0.2691
vn 0.9157 -0.3793 -0.1328
vn 0.6810 -0.6810 0.2691
vn 0.7008 -0.7008 -0.1328
vn 0.3685 -0.8898 0.2691
vn 0.3793 -0.9157 -0.1328
vn 0.0000 -0.9631 0.2691
vn 0.0000 -0.9911 -0.1328
vn -0.3685 -0.8898 0.2691
vn -0.3793 -0.9157 -0.1328
vn -0.6810 -0.6810 0.2691
vn -0.7008 -0.7008 -0.1328
vn -0.8898 -0.3685 0.2691
vn -0.9157 -0.3793 -0.1328
vn -0.9631 0.0000 0.2691
vn -0.9911 0.0000 -0.1328
vn -0.8898 0.3685 0.2691
vn -0.9157 0.3793 -0.1328
vn -0.6810 0.6810 0.2691
vn -0.7008 0.7008 -0.1328
vn 0.0000 0.8862 -0.4633
vn -0.3391 0.8187 -0.4633
vn -0.3793 0.9157 -0.1328
vn -0.3685 0.8898 0.2691
vn 0.4862 0.2014 0.8503
vn 0.5263 0.0000 0.8503
vn 0.3391 -0.8187 -0.4633
vn 0.0787 -0.1901 -0.9786
vn 0.1455 -0.1455 -0.9786
vn 0.6266 -0.6266 -0.4633
vn 0.8862 0.0000 -0.4633
vn 0.8187 0.3391 -0.4633
vn -0.3391 -0.8187 -0.4633
vn 0.0000 -0.8862 -0.4633
vn -0.6266 0.6266 -0.4633
vn -0.8187 0.3391 -0.4633
vn 0.6266 0.6266 -0.4633
vn 0.3391 0.8187 -0.4633
vn -0.8862 0.0000 -0.4633
vn -0.8187 -0.3391 -0.4633
vn 0.8187 -0.3391 -0.4633
vn -0.6266 -0.6266 -0.4633
vn -0.4862 0.2014 0.8503
vn 0.5665 -0.2346 0.7899
vn 0.4335 -0.4335 0.7899
vn -0.3721 0.3721 0.8503
vn 0.0000 -0.5263 0.8503
vn -0.2014 -0.4862 0.8503
vn 0.2014 0.4862 0.8503
vn 0.3721 0.3721 0.8503
vn 0.3721 -0.3721 0.8503
vn 0.2014 -0.4862 0.8503
vn -0.4862 -0.2014 0.8503
vn -0.5263 0.0000 0.8503
vn 0.4862 -0.2014 0.8503
vn -0.3721 -0.3721 0.8503
vn -0.2014 0.4862 0.8503
vn 0.0000 0.5263 0.8503
vn 0.1455 0.1455 -0.9786
vn -0.2981 -0.2981 -0.9068
vn -0.1613 -0.3895 -0.9068
vn 0.0787 0.1901 -0.9786
vn -0.0787 0.1901 -0.9786
vn -0.1455 0.1455 -0.9786
vn 0.0000 -0.2058 -0.9786
vn 0.0000 0.2058 -0.9786
vn -0.0787 -0.1901 -0.9786
vn -0.1455 -0.1455 -0.9786
vn 0.1901 0.0787 -0.9786
vn -0.1901 -0.0787 -0.9786
vn 0.2058 0.0000 -0.9786
vn -0.2058 0.0000 -0.9786
vn 0.1901 -0.0787 -0.9786
vn -0.1901 0.0787 -0.9786
vn -0.1613 0.3895 -0.9068
vn -0.0660 0.1593 -0.9850
vn -0.1219 0.1219 -0.9850
vn -0.2981 0.2981 -0.9068
vn 0.2981 0.2981 -0.9068
vn 0.1613 0.3895 -0.9068
vn -0.3895 -0.1613 -0.9068
vn 0.3895 0.1613 -0.9068
vn -0.4216 0.0000 -0.9068
vn 0.4216 0.0000 -0.9068
vn -0.3895 0.1613 -0.9068
vn 0.3895 -0.1613 -0.9068
vn 0.2981 -0.2981 -0.9068
vn 0.1613 -0.3895 -0.9068
vn 0.0000 0.4216 -0.9068
vn 0.0000 -0.4216 -0.9068
vn 0.1724 0.0000 -0.9850
vn -0.6124 0.0000 -0.7905
vn -0.5658 -0.2344 -0.7905
vn 0.1593 0.0660 -0.9850
vn 0.0660 -0.1593 -0.9850
vn 0.1219 -0.1219 -0.9850
vn 0.0000 0.1724 -0.9850
vn -0.0660 -0.1593 -0.9850
vn 0.0000 -0.1724 -0.9850
vn 0.0660 0.1593 -0.9850
vn -0.1219 -0.1219 -0.9850
vn 0.1219 0.1219 -0.9850
vn -0.1593 -0.0660 -0.9850
vn -0.1724 0.0000 -0.9850
vn -0.1593 0.0660 -0.9850
vn 0.1593 -0.0660 -0.9850
vn -0.4331 -0.4331 -0.7905
vn -0.6167 -0.6167 -0.4891
vn -0.3338 -0.8058 -0.4891
vn -0.2344 -0.5658 -0.7905
vn 0.5658 -0.2344 -0.7905
vn 0.6124 0.0000 -0.7905
vn -0.5658 0.2344 -0.7905
vn 0.4331 -0.4331 -0.7905
vn -0.4331 0.4331 -0.7905
vn 0.2344 -0.5658 -0.7905
vn -0.2344 0.5658 -0.7905
vn 0.0000 -0.6124 -0.7905
vn 0.2344 0.5658 -0.7905
vn 0.0000 0.6124 -0.7905
vn 0.4331 0.4331 -0.7905
vn 0.5658 0.2344 -0.7905
vn 0.0000 0.0000 -1.0000
vn 0.8058 0.3338 -0.4891
vn 0.6167 0.6167 -0.4891
vn -0.8058 -0.3338 -0.4891
vn 0.8722 0.0000 -0.4891
vn -0.8722 0.0000 -0.4891
vn 0.8058 -0.3338 -0.4891
vn -0.8058 0.3338 -0.4891
vn 0.6167 -0.6167 -0.4891
vn -0.6167 0.6167 -0.4891
vn 0.3338 -0.8058 -0.4891
vn -0.3338 0.8058 -0.4891
vn 0.0000 -0.8722 -0.4891
vn 0.3338 0.8058 -0.4891
vn 0.0000 0.8722 -0.4891
vn -0.5665 0.2346 0.7899
vn -0.6526 0.2703 0.7078
vn -0.4995 0.4995 0.7078
vn -0.4335 0.4335 0.7899
vn -0.2346 0.5665 0.7899
vn 0.2346 -0.5665 0.7899
vn 0.0000 0.6131 0.7899
vn 0.0000 -0.6131 0.7899
vn -0.2346 -0.5665 0.7899
vn 0.2346 0.5665 0.7899
vn -0.4335 -0.4335 0.7899
vn 0.4335 0.4335 0.7899
vn -0.5665 -0.2346 0.7899
vn 0.5665 0.2346 0.7899
vn -0.6131 0.0000 0.7899
vn 0.6131 0.0000 0.7899
vn 0.0000 -0.7064 0.7078
vn 0.2703 -0.6526 0.7078
vn 0.4995 -0.4995 0.7078
vn 0.6526 -0.2703 0.7078
vn 0.7064 0.0000 0.7078
vn 0.6526 0.2703 0.7078
vn 0.4995 0.4995 0.7078
vn 0.2703 0.6526 0.7078
vn 0.0000 0.7064 0.7078
vn -0.2703 0.6526 0.7078
vn -0.7064 0.0000 0.7078
vn -0.6526 -0.2703 0.7078
vn -0.4995 -0.4995 0.7078
vn -0.2703 -0.6526 0.7078
usemtl None
s 1
f 1/1/1 3/2/2 4/3/3 2/4/4
f 3/2/2 5/5/5 6/6/6 4/3/3
f 5/7/5 7/8/7 8/9/8 6/10/6
f 7/8/7 9/11/9 10/12/10 8/9/8
f 9/11/9 11/13/11 12/14/12 10/12/10
f 11/13/11 13/15/13 14/16/14 12/14/12
f 13/15/13 15/17/15 16/18/16 14/16/14
f 15/17/15 17/19/17 18/20/18 16/18/16
f 17/19/17 19/21/19 20/22/20 18/20/18
f 19/21/19 21/23/21 22/24/22 20/22/20
f 21/23/21 23/25/23 24/26/24 22/24/22
f 23/25/23 25/27/25 26/28/26 24/26/24
f 25/27/25 27/29/27 28/30/28 26/28/26
f 27/29/27 29/31/29 30/32/30 28/30/28
f 2/4/4 33/33/31 48/34/32 32/35/33
f 29/31/29 31/36/34 32/35/33 30/32/30
f 31/36/34 1/1/1 2/4/4 32/35/33
f 7/8/7 52/37/35 53/38/36 9/11/9
f 40/39/37 72/40/38 71/41/39 39/42/40
f 10/12/10 37/43/41 36/44/42 8/9/8
f 20/22/20 42/45/43 41/46/44 18/20/18
f 30/32/30 47/47/45 46/48/46 28/30/28
f 6/6/6 35/49/47 34/50/48 4/3/3
f 16/18/16 40/39/37 39/42/40 14/16/14
f 26/28/26 45/51/49 44/52/50 24/26/24
f 12/14/12 38/53/51 37/43/41 10/12/10
f 22/24/22 43/54/52 42/45/43 20/22/20
f 32/35/33 48/34/32 47/47/45 30/32/30
f 8/9/8 36/44/42 35/55/47 6/10/6
f 18/20/18 41/46/44 40/39/37 16/18/16
f 28/30/28 46/48/46 45/51/49 26/28/26
f 4/3/3 34/50/48 33/33/31 2/4/4
f 14/16/14 39/42/40 38/53/51 12/14/12
f 24/26/24 44/52/50 43/54/52 22/24/22
f 62/56/53 159/57/54 160/58/55 63/59/56
f 17/19/17 57/60/57 58/61/58 19/21/19
f 27/29/27 62/56/53 63/59/56 29/31/29
f 3/2/2 50/62/59 51/63/60 5/5/5
f 13/15/13 55/64/61 56/65/62 15/17/15
f 23/25/23 60/66/63 61/67/64 25/27/25
f 9/11/9 53/38/36 54/68/65 11/13/11
f 19/21/19 58/61/58 59/69/66 21/23/21
f 29/31/29 63/59/56 64/70/67 31/36/34
f 5/7/5 51/71/60 52/37/35 7/8/7
f 15/17/15 56/65/62 57/60/57 17/19/17
f 1/1/1 49/72/68 50/62/59 3/2/2
f 25/27/25 61/67/64 62/56/53 27/29/27
f 11/13/11 54/68/65 55/64/61 13/15/13
f 21/23/21 59/69/66 60/66/63 23/25/23
f 31/36/34 64/70/67 49/72/68 1/1/1
f 67/73/69 83/74/70 82/75/71 66/76/72
f 48/34/32 80/77/73 79/78/74 47/47/45
f 41/46/44 73/79/75 72/40/38 40/39/37
f 34/50/48 66/76/72 65/80/76 33/33/31
f 33/33/31 65/80/76 80/77/73 48/34/32
f 42/45/43 74/81/77 73/79/75 41/46/44
f 35/49/47 67/73/69 66/76/72 34/50/48
f 43/54/52 75/82/78 74/81/77 42/45/43
f 36/44/42 68/83/79 67/84/69 35/55/47
f 44/52/50 76/85/80 75/82/78 43/54/52
f 37/43/41 69/86/81 68/83/79 36/44/42
f 45/51/49 77/87/82 76/85/80 44/52/50
f 38/53/51 70/88/83 69/86/81 37/43/41
f 46/48/46 78/89/84 77/87/82 45/51/49
f 39/42/40 71/41/39 70/88/83 38/53/51
f 47/47/45 79/78/74 78/89/84 46/48/46
f 88/90/85 104/91/86 103/92/87 87/93/88
f 75/82/78 91/94/89 90/95/90 74/81/77
f 68/83/79 84/96/91 83/97/70 67/84/69
f 76/85/80 92/98/92 91/94/89 75/82/78
f 69/86/81 85/99/93 84/96/91 68/83/79
f 77/87/82 93/100/94 92/98/92 76/85/80
f 70/88/83 86/101/95 85/99/93 69/86/81
f 78/89/84 94/102/96 93/100/94 77/87/82
f 71/41/39 87/103/88 86/101/95 70/88/83
f 79/78/74 95/104/97 94/102/96 78/89/84
f 72/40/38 88/105/85 87/103/88 71/41/39
f 80/77/73 96/106/98 95/104/97 79/78/74
f 73/79/75 89/107/99 88/105/85 72/40/38
f 66/76/72 82/75/71 81/108/100 65/80/76
f 65/80/76 81/108/100 96/106/98 80/77/73
f 74/81/77 90/95/90 89/107/99 73/79/75
f 109/109/101 125/110/102 124/111/103 108/112/104
f 96/113/98 112/114/105 111/115/106 95/116/97
f 89/117/99 105/118/107 104/91/86 88/90/85
f 82/119/71 98/120/108 97/121/109 81/122/100
f 81/122/100 97/121/109 112/114/105 96/113/98
f 90/123/90 106/124/110 105/118/107 89/117/99
f 83/125/70 99/126/111 98/120/108 82/119/71
f 91/127/89 107/128/112 106/124/110 90/123/90
f 84/129/91 100/130/113 99/126/111 83/125/70
f 92/131/92 108/112/104 107/128/112 91/127/89
f 85/132/93 101/133/114 100/130/113 84/129/91
f 93/134/94 109/109/101 108/112/104 92/131/92
f 86/135/95 102/136/115 101/133/114 85/132/93
f 94/137/96 110/138/116 109/109/101 93/134/94
f 87/93/88 103/92/87 102/136/115 86/135/95
f 95/116/97 111/115/106 110/138/116 94/137/96
f 123/139/117 139/140/118 138/141/119 122/142/120
f 102/136/115 118/143/121 117/144/122 101/133/114
f 110/138/116 126/145/123 125/110/102 109/109/101
f 103/92/87 119/146/124 118/143/121 102/136/115
f 111/115/106 127/147/125 126/145/123 110/138/116
f 104/91/86 120/148/126 119/146/124 103/92/87
f 112/114/105 128/149/127 127/147/125 111/115/106
f 105/118/107 121/150/128 120/148/126 104/91/86
f 98/120/108 114/151/129 113/152/130 97/121/109
f 97/121/109 113/152/130 128/149/127 112/114/105
f 106/124/110 122/142/120 121/150/128 105/118/107
f 99/126/111 115/153/131 114/151/129 98/120/108
f 107/128/112 123/139/117 122/142/120 106/124/110
f 100/130/113 116/154/132 115/153/131 99/126/111
f 108/112/104 124/111/103 123/139/117 107/128/112
f 101/133/114 117/144/122 116/154/132 100/130/113
f 139/140/118 145/155/133 138/141/119
f 116/154/132 132/156/134 131/157/135 115/153/131
f 124/111/103 140/158/136 139/140/118 123/139/117
f 117/144/122 133/159/137 132/156/134 116/154/132
f 125/110/102 141/160/138 140/158/136 124/111/103
f 118/143/121 134/161/139 133/159/137 117/144/122
f 126/145/123 142/162/140 141/160/138 125/110/102
f 119/146/124 135/163/141 134/161/139 118/143/121
f 127/147/125 143/164/142 142/162/140 126/145/123
f 120/148/126 136/165/143 135/163/141 119/146/124
f 128/149/127 144/166/144 143/164/142 127/147/125
f 121/150/128 137/167/145 136/165/143 120/148/126
f 114/151/129 130/168/146 129/169/147 113/152/130
f 113/152/130 129/169/147 144/166/144 128/149/127
f 122/142/120 138/141/119 137/167/145 121/150/128
f 115/153/131 131/157/135 130/168/146 114/151/129
f 132/156/134 145/155/133 131/157/135
f 140/158/136 145/155/133 139/140/118
f 133/159/137 145/155/133 132/156/134
f 141/160/138 145/155/133 140/158/136
f 134/161/139 145/155/133 133/159/137
f 142/162/140 145/155/133 141/160/138
f 135/163/141 145/155/133 134/161/139
f 143/164/142 145/155/133 142/162/140
f 136/165/143 145/155/133 135/163/141
f 144/166/144 145/155/133 143/164/142
f 137/167/145 145/155/133 136/165/143
f 130/168/146 145/155/133 129/169/147
f 129/169/147 145/155/133 144/166/144
f 138/141/119 145/155/133 137/167/145
f 131/157/135 145/155/133 130/168/146
f 151/170/148 167/171/149 168/172/150 152/173/151
f 55/64/61 152/174/151 153/175/152 56/65/62
f 63/59/56 160/58/55 161/176/153 64/70/67
f 56/65/62 153/175/152 154/177/154 57/60/57
f 49/72/68 146/178/155 147/179/156 50/62/59
f 64/70/67 161/176/153 146/178/155 49/72/68
f 57/60/57 154/177/154 155/180/157 58/61/58
f 50/62/59 147/179/156 148/181/158 51/63/60
f 58/61/58 155/180/157 156/182/159 59/69/66
f 51/71/60 148/183/158 149/184/160 52/37/35
f 59/69/66 156/182/159 157/185/161 60/66/63
f 52/37/35 149/184/160 150/186/162 53/38/36
f 60/66/63 157/185/161 158/187/163 61/67/64
f 53/38/36 150/186/162 151/188/148 54/68/65
f 61/67/64 158/187/163 159/57/54 62/56/53
f 54/68/65 151/188/148 152/174/151 55/64/61
f 162/189/164 177/190/165 176/191/166 175/192/167 174/193/168 173/194/169 172/195/170 171/196/171 170/197/172 169/198/173 168/172/150 167/171/149 166/199/174 165/200/175 164/201/176 163/202/177
f 159/203/54 175/192/167 176/191/166 160/204/55
f 152/173/151 168/172/150 169/198/173 153/205/152
f 160/204/55 176/191/166 177/190/165 161/206/153
f 153/205/152 169/198/173 170/197/172 154/207/154
f 146/208/155 162/189/164 163/202/177 147/209/156
f 161/206/153 177/190/165 162/189/164 146/208/155
f 154/207/154 170/197/172 171/196/171 155/210/157
f 147/209/156 163/202/177 164/201/176 148/211/158
f 155/210/157 171/196/171 172/195/170 156/212/159
f 148/211/158 164/201/176 165/200/175 149/213/160
f 156/212/159 172/195/170 173/194/169 157/214/161
f 149/213/160 165/200/175 166/199/174 150/215/162
f 157/214/161 173/194/169 174/193/168 158/216/163
f 150/215/162 166/199/174 167/171/149 151/170/148
f 158/216/163 174/193/168 175/192/167 159/203/54
