# Blender v2.79 (sub 0) OBJ File: 'car_lab.blend'
# www.blender.org
mtllib car_lab_box.mtl
o Cube.011_Cube.012
v 0.000000 0.000000 0.000001
v 0.000000 0.000000 0.995885
v 0.000000 0.551964 0.000001
v 0.000000 0.551964 0.995885
v 0.318132 0.000000 0.000001
v 0.318132 0.000000 0.995885
v 0.318132 0.551964 0.000001
v 0.318132 0.551964 0.995885
vt 0.000000 0.529068
vt 0.741618 0.529068
vt 0.741618 1.000000
vt 0.000000 1.000000
vt 0.750976 0.996524
vt 0.750976 0.000207
vt 1.000690 0.000207
vt 1.000690 0.996524
vt 0.000000 0.000000
vt 0.745768 0.000000
vt 0.745768 0.525640
vt 0.000000 0.525640
vt 1.000690 0.996524
vt 1.000690 0.000207
vt 0.750976 0.000207
vt 0.750976 0.996524
vt 0.408135 0.191108
vt 0.734483 0.191108
vt 0.734483 0.517455
vt 0.408135 0.517455
vt 0.031511 0.211334
vt 0.311206 0.211334
vt 0.311206 0.491029
vt 0.031511 0.491029
vn -1.0000 0.0000 0.0000
vn 0.0000 1.0000 0.0000
vn 1.0000 0.0000 0.0000
vn 0.0000 -1.0000 0.0000
vn 0.0000 0.0000 -1.0000
vn 0.0000 0.0000 1.0000
usemtl None
s off
f 1/1/1 2/2/1 4/3/1 3/4/1
f 3/5/2 4/6/2 8/7/2 7/8/2
f 7/9/3 8/10/3 6/11/3 5/12/3
f 5/13/4 6/14/4 2/15/4 1/16/4
f 3/17/5 7/18/5 5/19/5 1/20/5
f 8/21/6 4/22/6 2/23/6 6/24/6
