# Blender v2.79 (sub 0) OBJ File: 'car_lab.blend'
# www.blender.org
o Cube.001
v 1.617532 -0.632948 0.491965
v 1.617532 3.519912 0.491965
v 1.617532 -0.632948 0.447034
v 1.617532 3.519912 0.447034
v 1.686981 -0.632948 0.491965
v 1.686981 3.519912 0.491965
v 1.686981 -0.632948 0.447034
v 1.686981 3.519912 0.447034
v 1.409382 -0.030795 1.150657
v 1.409382 0.027295 1.150657
v 1.409382 -0.030795 0.447799
v 1.409382 0.027295 0.447799
v 4.572345 -0.030795 1.150657
v 4.572345 0.027295 1.150657
v 4.572345 -0.030795 0.447799
v 4.572345 0.027295 0.447799
v 1.665077 -0.030493 0.994119
v 1.665077 -0.137039 0.486159
v 1.665077 -0.030493 0.486159
v 1.655339 -0.030493 0.994119
v 1.655339 -0.137039 0.486159
v 1.655339 -0.030493 0.486159
v 3.035560 -0.632948 0.491965
v 3.035560 3.519912 0.491965
v 3.035560 -0.632948 0.447034
v 3.035560 3.519912 0.447034
v 3.105009 -0.632948 0.491965
v 3.105009 3.519912 0.491965
v 3.105009 -0.632948 0.447034
v 3.105009 3.519912 0.447034
v 3.083105 -0.030493 0.994119
v 3.083105 -0.137039 0.486159
v 3.083105 -0.030493 0.486159
v 3.073367 -0.030493 0.994119
v 3.073367 -0.137039 0.486159
v 3.073367 -0.030493 0.486159
v 4.327795 -0.632948 0.491965
v 4.327795 3.519912 0.491965
v 4.327795 -0.632948 0.447034
v 4.327795 3.519912 0.447034
v 4.397243 -0.632948 0.491965
v 4.397243 3.519912 0.491965
v 4.397243 -0.632948 0.447034
v 4.397243 3.519912 0.447034
v 4.375340 -0.030493 0.994119
v 4.375340 -0.137039 0.486159
v 4.375340 -0.030493 0.486159
v 4.365602 -0.030493 0.994119
v 4.365602 -0.137039 0.486159
v 4.365602 -0.030493 0.486159
v 1.409382 1.065127 1.150657
v 1.409382 1.123217 1.150657
v 1.409382 1.065127 0.447799
v 1.409382 1.123217 0.447799
v 4.572345 1.065127 1.150657
v 4.572345 1.123217 1.150657
v 4.572345 1.065127 0.447799
v 4.572345 1.123217 0.447799
v 1.665077 1.065429 0.994119
v 1.665077 0.958883 0.486159
v 1.665077 1.065429 0.486159
v 1.655339 1.065429 0.994119
v 1.655339 0.958883 0.486159
v 1.655339 1.065429 0.486159
v 3.083105 1.065429 0.994119
v 3.083105 0.958883 0.486159
v 3.083105 1.065429 0.486159
v 3.073367 1.065429 0.994119
v 3.073367 0.958883 0.486159
v 3.073367 1.065429 0.486159
v 4.375340 1.065429 0.994119
v 4.375340 0.958883 0.486159
v 4.375340 1.065429 0.486159
v 4.365602 1.065429 0.994119
v 4.365602 0.958883 0.486159
v 4.365602 1.065429 0.486159
v 1.409382 2.188844 1.150657
v 1.409382 2.246934 1.150657
v 1.409382 2.188844 0.447799
v 1.409382 2.246934 0.447799
v 4.572345 2.188844 1.150657
v 4.572345 2.246934 1.150657
v 4.572345 2.188844 0.447799
v 4.572345 2.246934 0.447799
v 1.665077 2.189146 0.994119
v 1.665077 2.082600 0.486159
v 1.665077 2.189146 0.486159
v 1.655339 2.189146 0.994119
v 1.655339 2.082600 0.486159
v 1.655339 2.189146 0.486159
v 3.083105 2.189146 0.994119
v 3.083105 2.082600 0.486159
v 3.083105 2.189146 0.486159
v 3.073367 2.189146 0.994119
v 3.073367 2.082600 0.486159
v 3.073367 2.189146 0.486159
v 4.375340 2.189146 0.994119
v 4.375340 2.082600 0.486159
v 4.375340 2.189146 0.486159
v 4.365602 2.189146 0.994119
v 4.365602 2.082600 0.486159
v 4.365602 2.189146 0.486159
v -1.627923 -0.632948 0.491965
v -1.627923 3.519912 0.491965
v -1.627923 -0.632948 0.447034
v -1.627923 3.519912 0.447034
v -1.558475 -0.632948 0.491965
v -1.558475 3.519912 0.491965
v -1.558475 -0.632948 0.447034
v -1.558475 3.519912 0.447034
v -0.209895 -0.632948 0.491965
v -0.209895 3.519912 0.491965
v -0.209895 -0.632948 0.447034
v -0.209895 3.519912 0.447034
v -0.140447 -0.632948 0.491965
v -0.140447 3.519912 0.491965
v -0.140447 -0.632948 0.447034
v -0.140447 3.519912 0.447034
v 1.082340 -0.632948 0.491965
v 1.082340 3.519912 0.491965
v 1.082340 -0.632948 0.447034
v 1.082340 3.519912 0.447034
v 1.151788 -0.632948 0.491965
v 1.151788 3.519912 0.491965
v 1.151788 -0.632948 0.447034
v 1.151788 3.519912 0.447034
v -1.836073 1.065127 1.150657
v -1.836073 1.123217 1.150657
v -1.836073 1.065127 0.447799
v -1.836073 1.123217 0.447799
v 1.326890 1.065127 1.150657
v 1.326890 1.123217 1.150657
v 1.326890 1.065127 0.447799
v 1.326890 1.123217 0.447799
v -1.580378 1.065429 0.994119
v -1.580378 0.958883 0.486159
v -1.580378 1.065429 0.486159
v -1.590116 1.065429 0.994119
v -1.590116 0.958883 0.486159
v -1.590116 1.065429 0.486159
v -0.162351 1.065429 0.994119
v -0.162351 0.958883 0.486159
v -0.162351 1.065429 0.486159
v -0.172088 1.065429 0.994119
v -0.172088 0.958883 0.486159
v -0.172088 1.065429 0.486159
v 1.129884 1.065429 0.994119
v 1.129884 0.958883 0.486159
v 1.129884 1.065429 0.486159
v 1.120147 1.065429 0.994119
v 1.120147 0.958883 0.486159
v 1.120147 1.065429 0.486159
v -1.836073 2.188844 1.150657
v -1.836073 2.246934 1.150657
v -1.836073 2.188844 0.447799
v -1.836073 2.246934 0.447799
v 1.326890 2.188844 1.150657
v 1.326890 2.246934 1.150657
v 1.326890 2.188844 0.447799
v 1.326890 2.246934 0.447799
v -1.580378 2.189146 0.994119
v -1.580378 2.082600 0.486159
v -1.580378 2.189146 0.486159
v -1.590116 2.189146 0.994119
v -1.590116 2.082600 0.486159
v -1.590116 2.189146 0.486159
v -0.162351 2.189146 0.994119
v -0.162351 2.082600 0.486159
v -0.162351 2.189146 0.486159
v -0.172088 2.189146 0.994119
v -0.172088 2.082600 0.486159
v -0.172088 2.189146 0.486159
v 1.129884 2.189146 0.994119
v 1.129884 2.082600 0.486159
v 1.129884 2.189146 0.486159
v 1.120147 2.189146 0.994119
v 1.120147 2.082600 0.486159
v 1.120147 2.189146 0.486159
v -4.848951 -0.632948 0.491965
v -4.848951 3.519912 0.491965
v -4.848951 -0.632948 0.447034
v -4.848951 3.519912 0.447034
v -4.779503 -0.632948 0.491965
v -4.779503 3.519912 0.491965
v -4.779503 -0.632948 0.447034
v -4.779503 3.519912 0.447034
v -3.430923 -0.632948 0.491965
v -3.430923 3.519912 0.491965
v -3.430923 -0.632948 0.447034
v -3.430923 3.519912 0.447034
v -3.361475 -0.632948 0.491965
v -3.361475 3.519912 0.491965
v -3.361475 -0.632948 0.447034
v -3.361475 3.519912 0.447034
v -2.138689 -0.632948 0.491965
v -2.138689 3.519912 0.491965
v -2.138689 -0.632948 0.447034
v -2.138689 3.519912 0.447034
v -2.069240 -0.632948 0.491965
v -2.069240 3.519912 0.491965
v -2.069240 -0.632948 0.447034
v -2.069240 3.519912 0.447034
v -5.057101 2.188844 1.150657
v -5.057101 2.246934 1.150657
v -5.057101 2.188844 0.447799
v -5.057101 2.246934 0.447799
v -1.894138 2.188844 1.150657
v -1.894138 2.246934 1.150657
v -1.894138 2.188844 0.447799
v -1.894138 2.246934 0.447799
v -4.801407 2.189146 0.994119
v -4.801407 2.082600 0.486159
v -4.801407 2.189146 0.486159
v -4.811144 2.189146 0.994119
v -4.811144 2.082600 0.486159
v -4.811144 2.189146 0.486159
v -3.383379 2.189146 0.994119
v -3.383379 2.082600 0.486159
v -3.383379 2.189146 0.486159
v -3.393116 2.189146 0.994119
v -3.393116 2.082600 0.486159
v -3.393116 2.189146 0.486159
v -2.091144 2.189146 0.994119
v -2.091144 2.082600 0.486159
v -2.091144 2.189146 0.486159
v -2.100882 2.189146 0.994119
v -2.100882 2.082600 0.486159
v -2.100882 2.189146 0.486159
vt 0.042102 -2.526340
vt 0.042102 3.546102
vt 0.004477 3.546671
vt 0.004477 -2.525771
vt 0.593158 -0.287870
vt 0.623392 -0.287870
vt 0.623392 0.077949
vt 0.593158 0.077949
vt 0.213065 -2.526985
vt 0.213065 3.545457
vt 0.148096 3.546026
vt 0.148096 -2.526416
vt 0.593157 0.956383
vt 0.623391 0.956383
vt 0.623391 1.322195
vt 0.593157 1.322196
vt 0.227337 0.956383
vt 0.227337 0.077949
vt 0.989212 0.077949
vt 0.989211 0.956384
vt 0.175086 0.969283
vt 0.135130 0.066319
vt 0.214981 0.064701
vt 0.137795 0.069729
vt 0.212840 0.081389
vt 0.174647 0.959276
vt 0.042102 -2.526340
vt 0.042102 3.546102
vt 0.004477 3.546671
vt 0.004477 -2.525771
vt 0.213065 -2.526985
vt 0.213065 3.545457
vt 0.148096 3.546026
vt 0.148096 -2.526416
vt 0.175086 0.969283
vt 0.135130 0.066319
vt 0.214981 0.064701
vt 0.137795 0.069729
vt 0.212840 0.081389
vt 0.174647 0.959276
vt 0.042102 -2.526340
vt 0.042102 3.546102
vt 0.004477 3.546671
vt 0.004477 -2.525771
vt 0.213065 -2.526985
vt 0.213065 3.545457
vt 0.148096 3.546026
vt 0.148096 -2.526416
vt 0.175086 0.969283
vt 0.135130 0.066319
vt 0.214981 0.064701
vt 0.137795 0.069729
vt 0.212840 0.081389
vt 0.174647 0.959276
vt 0.593158 -0.287870
vt 0.623392 -0.287870
vt 0.623392 0.077949
vt 0.593158 0.077949
vt 0.593157 0.956383
vt 0.623391 0.956383
vt 0.623391 1.322195
vt 0.593157 1.322196
vt 0.227337 0.956383
vt 0.227337 0.077949
vt 0.989212 0.077949
vt 0.989211 0.956384
vt 0.175086 0.969283
vt 0.135130 0.066319
vt 0.214981 0.064701
vt 0.137795 0.069729
vt 0.212840 0.081389
vt 0.174647 0.959276
vt 0.175086 0.969283
vt 0.135130 0.066319
vt 0.214981 0.064701
vt 0.137795 0.069729
vt 0.212840 0.081389
vt 0.174647 0.959276
vt 0.175086 0.969283
vt 0.135130 0.066319
vt 0.214981 0.064701
vt 0.137795 0.069729
vt 0.212840 0.081389
vt 0.174647 0.959276
vt 0.593158 -0.287870
vt 0.623392 -0.287870
vt 0.623392 0.077949
vt 0.593158 0.077949
vt 0.593157 0.956383
vt 0.623391 0.956383
vt 0.623391 1.322195
vt 0.593157 1.322196
vt 0.227337 0.956383
vt 0.227337 0.077949
vt 0.989212 0.077949
vt 0.989211 0.956384
vt 0.175086 0.969283
vt 0.135130 0.066319
vt 0.214981 0.064701
vt 0.137795 0.069729
vt 0.212840 0.081389
vt 0.174647 0.959276
vt 0.175086 0.969283
vt 0.135130 0.066319
vt 0.214981 0.064701
vt 0.137795 0.069729
vt 0.212840 0.081389
vt 0.174647 0.959276
vt 0.175086 0.969283
vt 0.135130 0.066319
vt 0.214981 0.064701
vt 0.137795 0.069729
vt 0.212840 0.081389
vt 0.174647 0.959276
vt 0.042102 -2.526340
vt 0.042102 3.546102
vt 0.004477 3.546671
vt 0.004477 -2.525771
vt 0.213065 -2.526985
vt 0.213065 3.545457
vt 0.148096 3.546026
vt 0.148096 -2.526416
vt 0.042102 -2.526340
vt 0.042102 3.546102
vt 0.004477 3.546671
vt 0.004477 -2.525771
vt 0.213065 -2.526985
vt 0.213065 3.545457
vt 0.148096 3.546026
vt 0.148096 -2.526416
vt 0.042102 -2.526340
vt 0.042102 3.546102
vt 0.004477 3.546671
vt 0.004477 -2.525771
vt 0.213065 -2.526985
vt 0.213065 3.545457
vt 0.148096 3.546026
vt 0.148096 -2.526416
vt 0.593158 -0.287870
vt 0.623392 -0.287870
vt 0.623392 0.077949
vt 0.593158 0.077949
vt 0.593157 0.956383
vt 0.623391 0.956383
vt 0.623391 1.322195
vt 0.593157 1.322196
vt 0.227337 0.956383
vt 0.227337 0.077949
vt 0.989212 0.077949
vt 0.989211 0.956384
vt 0.175086 0.969283
vt 0.135130 0.066319
vt 0.214981 0.064701
vt 0.137795 0.069729
vt 0.212840 0.081389
vt 0.174647 0.959276
vt 0.175086 0.969283
vt 0.135130 0.066319
vt 0.214981 0.064701
vt 0.137795 0.069729
vt 0.212840 0.081389
vt 0.174647 0.959276
vt 0.175086 0.969283
vt 0.135130 0.066319
vt 0.214981 0.064701
vt 0.137795 0.069729
vt 0.212840 0.081389
vt 0.174647 0.959276
vt 0.593158 -0.287870
vt 0.623392 -0.287870
vt 0.623392 0.077949
vt 0.593158 0.077949
vt 0.593157 0.956383
vt 0.623391 0.956383
vt 0.623391 1.322195
vt 0.593157 1.322196
vt 0.227337 0.956383
vt 0.227337 0.077949
vt 0.989212 0.077949
vt 0.989211 0.956384
vt 0.175086 0.969283
vt 0.135130 0.066319
vt 0.214981 0.064701
vt 0.137795 0.069729
vt 0.212840 0.081389
vt 0.174647 0.959276
vt 0.175086 0.969283
vt 0.135130 0.066319
vt 0.214981 0.064701
vt 0.137795 0.069729
vt 0.212840 0.081389
vt 0.174647 0.959276
vt 0.175086 0.969283
vt 0.135130 0.066319
vt 0.214981 0.064701
vt 0.137795 0.069729
vt 0.212840 0.081389
vt 0.174647 0.959276
vt 0.042102 -2.526340
vt 0.042102 3.546102
vt 0.004477 3.546671
vt 0.004477 -2.525771
vt 0.213065 -2.526985
vt 0.213065 3.545457
vt 0.148096 3.546026
vt 0.148096 -2.526416
vt 0.042102 -2.526340
vt 0.042102 3.546102
vt 0.004477 3.546671
vt 0.004477 -2.525771
vt 0.213065 -2.526985
vt 0.213065 3.545457
vt 0.148096 3.546026
vt 0.148096 -2.526416
vt 0.042102 -2.526340
vt 0.042102 3.546102
vt 0.004477 3.546671
vt 0.004477 -2.525771
vt 0.213065 -2.526985
vt 0.213065 3.545457
vt 0.148096 3.546026
vt 0.148096 -2.526416
vt 0.593158 -0.287870
vt 0.623392 -0.287870
vt 0.623392 0.077949
vt 0.593158 0.077949
vt 0.593157 0.956383
vt 0.623391 0.956383
vt 0.623391 1.322195
vt 0.593157 1.322196
vt 0.227337 0.956383
vt 0.227337 0.077949
vt 0.989212 0.077949
vt 0.989211 0.956384
vt 0.175086 0.969283
vt 0.135130 0.066319
vt 0.214981 0.064701
vt 0.137795 0.069729
vt 0.212840 0.081389
vt 0.174647 0.959276
vt 0.175086 0.969283
vt 0.135130 0.066319
vt 0.214981 0.064701
vt 0.137795 0.069729
vt 0.212840 0.081389
vt 0.174647 0.959276
vt 0.175086 0.969283
vt 0.135130 0.066319
vt 0.214981 0.064701
vt 0.137795 0.069729
vt 0.212840 0.081389
vt 0.174647 0.959276
vn -1.0000 0.0000 0.0000
vn 1.0000 0.0000 0.0000
vn 0.0000 0.0000 1.0000
vn 0.0000 -1.0000 0.0000
vn 0.0000 1.0000 0.0000
vn 0.0000 0.9787 -0.2053
s off
f 1/1/1 2/2/1 4/3/1 3/4/1
f 15/5/2 16/6/2 14/7/2 13/8/2
f 7/9/2 8/10/2 6/11/2 5/12/2
f 5/12/3 6/11/3 2/2/3 1/1/3
f 9/13/1 10/14/1 12/15/1 11/16/1
f 13/8/3 14/7/3 10/14/3 9/13/3
f 11/17/4 15/18/4 13/8/4 9/13/4
f 16/19/5 12/20/5 10/14/5 14/7/5
f 17/21/1 19/22/1 18/23/1
f 21/24/2 22/25/2 20/26/2
f 18/23/6 21/24/6 20/26/6 17/21/6
f 22/25/4 19/22/4 17/21/4 20/26/4
f 23/27/1 24/28/1 26/29/1 25/30/1
f 29/31/2 30/32/2 28/33/2 27/34/2
f 27/34/3 28/33/3 24/28/3 23/27/3
f 31/35/1 33/36/1 32/37/1
f 35/38/2 36/39/2 34/40/2
f 32/37/6 35/38/6 34/40/6 31/35/6
f 36/39/4 33/36/4 31/35/4 34/40/4
f 37/41/1 38/42/1 40/43/1 39/44/1
f 43/45/2 44/46/2 42/47/2 41/48/2
f 41/48/3 42/47/3 38/42/3 37/41/3
f 45/49/1 47/50/1 46/51/1
f 49/52/2 50/53/2 48/54/2
f 46/51/6 49/52/6 48/54/6 45/49/6
f 50/53/4 47/50/4 45/49/4 48/54/4
f 57/55/2 58/56/2 56/57/2 55/58/2
f 51/59/1 52/60/1 54/61/1 53/62/1
f 55/58/3 56/57/3 52/60/3 51/59/3
f 53/63/4 57/64/4 55/58/4 51/59/4
f 58/65/5 54/66/5 52/60/5 56/57/5
f 59/67/1 61/68/1 60/69/1
f 63/70/2 64/71/2 62/72/2
f 60/69/6 63/70/6 62/72/6 59/67/6
f 64/71/4 61/68/4 59/67/4 62/72/4
f 65/73/1 67/74/1 66/75/1
f 69/76/2 70/77/2 68/78/2
f 66/75/6 69/76/6 68/78/6 65/73/6
f 70/77/4 67/74/4 65/73/4 68/78/4
f 71/79/1 73/80/1 72/81/1
f 75/82/2 76/83/2 74/84/2
f 72/81/6 75/82/6 74/84/6 71/79/6
f 76/83/4 73/80/4 71/79/4 74/84/4
f 83/85/2 84/86/2 82/87/2 81/88/2
f 77/89/1 78/90/1 80/91/1 79/92/1
f 81/88/3 82/87/3 78/90/3 77/89/3
f 79/93/4 83/94/4 81/88/4 77/89/4
f 84/95/5 80/96/5 78/90/5 82/87/5
f 85/97/1 87/98/1 86/99/1
f 89/100/2 90/101/2 88/102/2
f 86/99/6 89/100/6 88/102/6 85/97/6
f 90/101/4 87/98/4 85/97/4 88/102/4
f 91/103/1 93/104/1 92/105/1
f 95/106/2 96/107/2 94/108/2
f 92/105/6 95/106/6 94/108/6 91/103/6
f 96/107/4 93/104/4 91/103/4 94/108/4
f 97/109/1 99/110/1 98/111/1
f 101/112/2 102/113/2 100/114/2
f 98/111/6 101/112/6 100/114/6 97/109/6
f 102/113/4 99/110/4 97/109/4 100/114/4
f 103/115/1 104/116/1 106/117/1 105/118/1
f 109/119/2 110/120/2 108/121/2 107/122/2
f 107/122/3 108/121/3 104/116/3 103/115/3
f 111/123/1 112/124/1 114/125/1 113/126/1
f 117/127/2 118/128/2 116/129/2 115/130/2
f 115/130/3 116/129/3 112/124/3 111/123/3
f 119/131/1 120/132/1 122/133/1 121/134/1
f 125/135/2 126/136/2 124/137/2 123/138/2
f 123/138/3 124/137/3 120/132/3 119/131/3
f 133/139/2 134/140/2 132/141/2 131/142/2
f 127/143/1 128/144/1 130/145/1 129/146/1
f 131/142/3 132/141/3 128/144/3 127/143/3
f 129/147/4 133/148/4 131/142/4 127/143/4
f 134/149/5 130/150/5 128/144/5 132/141/5
f 135/151/1 137/152/1 136/153/1
f 139/154/2 140/155/2 138/156/2
f 136/153/6 139/154/6 138/156/6 135/151/6
f 140/155/4 137/152/4 135/151/4 138/156/4
f 141/157/1 143/158/1 142/159/1
f 145/160/2 146/161/2 144/162/2
f 142/159/6 145/160/6 144/162/6 141/157/6
f 146/161/4 143/158/4 141/157/4 144/162/4
f 147/163/1 149/164/1 148/165/1
f 151/166/2 152/167/2 150/168/2
f 148/165/6 151/166/6 150/168/6 147/163/6
f 152/167/4 149/164/4 147/163/4 150/168/4
f 159/169/2 160/170/2 158/171/2 157/172/2
f 153/173/1 154/174/1 156/175/1 155/176/1
f 157/172/3 158/171/3 154/174/3 153/173/3
f 155/177/4 159/178/4 157/172/4 153/173/4
f 160/179/5 156/180/5 154/174/5 158/171/5
f 161/181/1 163/182/1 162/183/1
f 165/184/2 166/185/2 164/186/2
f 162/183/6 165/184/6 164/186/6 161/181/6
f 166/185/4 163/182/4 161/181/4 164/186/4
f 167/187/1 169/188/1 168/189/1
f 171/190/2 172/191/2 170/192/2
f 168/189/6 171/190/6 170/192/6 167/187/6
f 172/191/4 169/188/4 167/187/4 170/192/4
f 173/193/1 175/194/1 174/195/1
f 177/196/2 178/197/2 176/198/2
f 174/195/6 177/196/6 176/198/6 173/193/6
f 178/197/4 175/194/4 173/193/4 176/198/4
f 179/199/1 180/200/1 182/201/1 181/202/1
f 185/203/2 186/204/2 184/205/2 183/206/2
f 183/206/3 184/205/3 180/200/3 179/199/3
f 187/207/1 188/208/1 190/209/1 189/210/1
f 193/211/2 194/212/2 192/213/2 191/214/2
f 191/214/3 192/213/3 188/208/3 187/207/3
f 195/215/1 196/216/1 198/217/1 197/218/1
f 201/219/2 202/220/2 200/221/2 199/222/2
f 199/222/3 200/221/3 196/216/3 195/215/3
f 209/223/2 210/224/2 208/225/2 207/226/2
f 203/227/1 204/228/1 206/229/1 205/230/1
f 207/226/3 208/225/3 204/228/3 203/227/3
f 205/231/4 209/232/4 207/226/4 203/227/4
f 210/233/5 206/234/5 204/228/5 208/225/5
f 211/235/1 213/236/1 212/237/1
f 215/238/2 216/239/2 214/240/2
f 212/237/6 215/238/6 214/240/6 211/235/6
f 216/239/4 213/236/4 211/235/4 214/240/4
f 217/241/1 219/242/1 218/243/1
f 221/244/2 222/245/2 220/246/2
f 218/243/6 221/244/6 220/246/6 217/241/6
f 222/245/4 219/242/4 217/241/4 220/246/4
f 223/247/1 225/248/1 224/249/1
f 227/250/2 228/251/2 226/252/2
f 224/249/6 227/250/6 226/252/6 223/247/6
f 228/251/4 225/248/4 223/247/4 226/252/4
