# Blender v2.79 (sub 0) OBJ File: 'car_lab.blend'
# www.blender.org
o Cube.003
v 4.696365 3.648624 0.676015
v 4.965429 3.648624 0.676015
v 4.696366 -0.640409 0.676015
v 4.965431 -0.640409 0.676015
v 4.696365 3.648624 0.446007
v 4.965429 3.648624 0.446007
v 4.696366 -0.640409 0.446007
v 4.965430 -0.640409 0.446007
vt 3.870630 0.616345
vt 3.870630 0.997537
vt -3.180033 0.997537
vt -3.180033 0.616345
vt 4.047964 0.336492
vt 4.047964 0.659401
vt -2.938840 0.659401
vt -2.938840 0.336492
vt -2.938840 0.336492
vt -2.938840 0.659401
vt 4.047964 0.659401
vt 4.047964 0.336492
vn 0.0000 0.0000 1.0000
vn 1.0000 0.0000 -0.0000
vn -1.0000 -0.0000 0.0000
s off
f 3/1/1 4/2/1 2/3/1 1/4/1
f 4/5/2 8/6/2 6/7/2 2/8/2
f 1/9/3 5/10/3 7/11/3 3/12/3
