# Blender v2.79 (sub 0) OBJ File: 'car_lab.blend'
# www.blender.org
o Cube.004
v 5.193144 -0.902811 0.686422
v 5.193144 -0.633746 0.686422
v 5.193144 -0.902811 5.663136
v 5.193144 -0.633746 5.663136
v 5.498982 -0.902811 0.686422
v 5.152577 -0.633746 0.686422
v 5.498982 -0.902811 5.663136
v 5.152577 -0.633746 5.663136
v 5.193647 -0.841275 3.095791
v 5.193647 -0.665913 3.095791
v 5.193647 -0.841275 3.579429
v 5.193647 -0.665913 3.579429
v 5.177303 -0.687919 3.569611
v 5.177303 -0.819270 3.569611
v 5.177303 -0.819270 3.105608
v 5.177303 -0.687919 3.105608
v 5.193647 -0.822049 3.095791
v 5.193647 -0.685139 3.095791
v 5.193647 -0.685139 3.579429
v 5.193647 -0.822049 3.579429
v 5.177303 -0.669473 3.550978
v 5.177303 -0.669473 3.124241
v 5.177303 -0.837715 3.124242
v 5.177303 -0.837715 3.550979
v 5.193647 -0.841275 3.115213
v 5.193647 -0.841275 3.560008
v 5.193647 -0.665913 3.560007
v 5.193647 -0.665913 3.115212
v 5.170790 -0.822049 3.560007
v 5.170790 -0.822049 3.115212
v 5.170790 -0.685139 3.560007
v 5.170790 -0.685139 3.115212
v 5.193647 -0.841275 1.936382
v 5.193647 -0.665913 1.936382
v 5.193647 -0.841275 2.110232
v 5.193647 -0.665913 2.110232
v 5.177303 -0.687919 2.100414
v 5.177303 -0.819270 2.100414
v 5.177303 -0.819270 1.946199
v 5.177303 -0.687919 1.946199
v 5.193647 -0.822049 1.936382
v 5.193647 -0.685139 1.936382
v 5.193647 -0.685139 2.110232
v 5.193647 -0.822049 2.110232
v 5.177303 -0.669473 2.081781
v 5.177303 -0.669473 1.964832
v 5.177303 -0.837715 1.964832
v 5.177303 -0.837715 2.081782
v 5.193647 -0.841275 1.955803
v 5.193647 -0.841275 2.090811
v 5.193647 -0.665913 2.090810
v 5.193647 -0.665913 1.955803
v 5.170790 -0.822049 2.090810
v 5.170790 -0.822049 1.955803
v 5.170790 -0.685139 2.090810
v 5.170790 -0.685139 1.955803
v 5.177303 -0.669473 3.425296
v 5.177303 -0.669473 3.249923
v 5.177303 -0.837715 3.249923
v 5.177303 -0.837715 3.425297
v 5.193647 -0.841275 3.246213
v 5.193647 -0.841275 3.429007
v 5.193647 -0.665913 3.429007
v 5.193647 -0.665913 3.246212
v 5.170790 -0.822049 3.429007
v 5.170790 -0.822049 3.246212
v 5.170790 -0.685139 3.429007
v 5.170790 -0.685139 3.246212
v 5.193647 -0.841275 3.965380
v 5.193647 -0.665913 3.965380
v 5.193647 -0.841275 4.449018
v 5.193647 -0.665913 4.449018
v 5.177303 -0.687919 4.439200
v 5.177303 -0.819270 4.439200
v 5.177303 -0.819270 3.975198
v 5.177303 -0.687919 3.975198
v 5.193647 -0.822049 3.965380
v 5.193647 -0.685139 3.965380
v 5.193647 -0.685139 4.449018
v 5.193647 -0.822049 4.449018
v 5.177303 -0.669473 4.420568
v 5.177303 -0.669473 3.993831
v 5.177303 -0.837715 3.993831
v 5.177303 -0.837715 4.420568
v 5.193647 -0.841275 3.984802
v 5.193647 -0.841275 4.429597
v 5.193647 -0.665913 4.429596
v 5.193647 -0.665913 3.984802
v 5.170790 -0.822049 4.429596
v 5.170790 -0.822049 3.984802
v 5.170790 -0.685139 4.429596
v 5.170790 -0.685139 3.984802
v 5.177303 -0.669473 4.294886
v 5.177303 -0.669473 4.119513
v 5.177303 -0.837715 4.119513
v 5.177303 -0.837715 4.294887
v 5.193647 -0.841275 4.115802
v 5.193647 -0.841275 4.298597
v 5.193647 -0.665913 4.298596
v 5.193647 -0.665913 4.115802
v 5.170790 -0.822049 4.298596
v 5.170790 -0.822049 4.115802
v 5.170790 -0.685139 4.298596
v 5.170790 -0.685139 4.115802
v 5.193647 -0.841275 1.666372
v 5.193647 -0.665913 1.666372
v 5.193647 -0.841275 1.840222
v 5.193647 -0.665913 1.840222
v 5.177303 -0.687919 1.830405
v 5.177303 -0.819270 1.830405
v 5.177303 -0.819270 1.676190
v 5.177303 -0.687919 1.676190
v 5.193647 -0.822049 1.666372
v 5.193647 -0.685139 1.666372
v 5.193647 -0.685139 1.840222
v 5.193647 -0.822049 1.840222
v 5.177303 -0.669473 1.811772
v 5.177303 -0.669473 1.694822
v 5.177303 -0.837715 1.694823
v 5.177303 -0.837715 1.811772
v 5.193647 -0.841275 1.685794
v 5.193647 -0.841275 1.820801
v 5.193647 -0.665913 1.820801
v 5.193647 -0.665913 1.685793
v 5.170790 -0.822049 1.820801
v 5.170790 -0.822049 1.685793
v 5.170790 -0.685139 1.820801
v 5.170790 -0.685139 1.685793
v 5.152577 -0.575568 0.686422
v 5.152577 -0.575568 5.663136
v 5.705750 -0.575568 0.686422
v 5.705750 -0.575568 5.663136
vt 3.870630 0.616345
vt 3.870630 0.997537
vt -3.180033 0.997537
vt -3.180033 0.616345
vt 0.023943 0.275124
vt 0.050086 0.301005
vt 0.010168 0.305999
vt 4.047964 0.336492
vt 4.047964 0.659401
vt -2.938840 0.659401
vt -2.938840 0.336492
vt 0.222999 0.280822
vt 0.237156 0.284829
vt 0.237156 0.312553
vt -2.938840 0.336492
vt -2.938840 0.659401
vt 4.047964 0.659401
vt 4.047964 0.336492
vt 0.196130 0.307420
vt 0.050086 0.064947
vt 0.010168 0.059952
vt 0.037418 0.059952
vt 0.023943 0.090828
vt 0.209150 0.284829
vt 0.010168 0.279023
vt 0.010168 0.086928
vt 0.037418 0.086928
vt 0.037418 0.279023
vt 0.237156 0.087407
vt 0.222999 0.091415
vt 0.209150 0.087407
vt 0.238274 0.086928
vt 0.238274 0.279023
vt 0.037418 0.305999
vt 0.243481 0.064947
vt 0.009398 0.059683
vt 0.209151 0.059683
vt 0.196131 0.064816
vt 0.004048 0.064816
vt 0.243480 0.301005
vt 0.209150 0.312553
vt 0.238274 0.305999
vt 0.237156 0.059683
vt 0.243744 0.275432
vt 0.268272 0.302521
vt 0.230820 0.307749
vt 0.446754 0.275432
vt 0.459678 0.279513
vt 0.459678 0.307749
vt 0.422225 0.302521
vt 0.268273 0.055442
vt 0.230820 0.050215
vt 0.256387 0.050215
vt 0.243744 0.082531
vt 0.434111 0.279513
vt 0.230820 0.279513
vt 0.230820 0.078450
vt 0.256386 0.078450
vt 0.256386 0.279513
vt 0.459678 0.078450
vt 0.446754 0.082531
vt 0.434111 0.078450
vt 0.256386 0.307749
vt 0.422226 0.055442
vt 0.434112 0.050215
vt 0.434111 0.307749
vt 0.459678 0.050215
vt 0.009398 0.312553
vt 0.004047 0.307420
vt 0.237798 0.311431
vt -0.006137 0.311431
vt -0.001185 0.306528
vt 0.232846 0.306528
vt 0.009398 0.284829
vt 0.237798 0.284951
vt -0.006137 0.284951
vt 0.238275 0.059952
vt -0.006136 0.069910
vt 0.237799 0.069910
vt 0.232847 0.074813
vt -0.001184 0.074813
vt 0.009398 0.087407
vt 0.237798 0.096390
vt -0.006137 0.096390
vt 0.023943 0.275124
vt 0.050086 0.301005
vt 0.010168 0.305999
vt 0.222999 0.280822
vt 0.237156 0.284829
vt 0.237156 0.312553
vt 0.196130 0.307420
vt 0.050086 0.064947
vt 0.010168 0.059952
vt 0.037418 0.059952
vt 0.023943 0.090828
vt 0.209150 0.284829
vt 0.010168 0.279023
vt 0.010168 0.086928
vt 0.037418 0.086928
vt 0.037418 0.279023
vt 0.237156 0.087407
vt 0.222999 0.091415
vt 0.209150 0.087407
vt 0.238274 0.086928
vt 0.238274 0.279023
vt 0.037418 0.305999
vt 0.243481 0.064947
vt 0.009398 0.059683
vt 0.209151 0.059683
vt 0.196131 0.064816
vt 0.004048 0.064816
vt 0.243480 0.301005
vt 0.209150 0.312553
vt 0.238274 0.305999
vt 0.237156 0.059683
vt 0.009398 0.312553
vt 0.004047 0.307420
vt 0.237798 0.311431
vt -0.006137 0.311431
vt -0.001185 0.306528
vt 0.232846 0.306528
vt 0.009398 0.284829
vt 0.237798 0.284951
vt -0.006137 0.284951
vt 0.238275 0.059952
vt -0.006136 0.069910
vt 0.237799 0.069910
vt 0.232847 0.074813
vt -0.001184 0.074813
vt 0.009398 0.087407
vt 0.237798 0.096390
vt -0.006137 0.096390
vt 0.243744 0.275432
vt 0.268272 0.302521
vt 0.230820 0.307749
vt 0.446754 0.275432
vt 0.459678 0.279513
vt 0.459678 0.307749
vt 0.422225 0.302521
vt 0.268273 0.055442
vt 0.230820 0.050215
vt 0.256387 0.050215
vt 0.243744 0.082531
vt 0.434111 0.279513
vt 0.230820 0.279513
vt 0.230820 0.078450
vt 0.256386 0.078450
vt 0.256386 0.279513
vt 0.459678 0.078450
vt 0.446754 0.082531
vt 0.434111 0.078450
vt 0.256386 0.307749
vt 0.422226 0.055442
vt 0.434112 0.050215
vt 0.434111 0.307749
vt 0.459678 0.050215
vt 4.047964 0.659401
vt -2.938840 0.659401
vt 4.047964 0.659401
vt -2.938840 0.659401
vn -1.0000 0.0000 0.0000
vn -0.8096 0.4171 -0.4129
vn 0.0000 -1.0000 0.0000
vn -0.5149 0.0000 0.8573
vn -0.8096 0.4171 0.4129
vn -0.2128 -0.9771 0.0000
vn -0.8096 -0.4171 -0.4129
vn -0.5918 0.5728 0.5671
vn -0.5149 0.0000 -0.8572
vn -0.8276 0.0000 -0.5613
vn -0.5149 0.0000 0.8572
vn -0.8276 0.0000 0.5613
vn -0.2128 0.9771 0.0000
vn -0.9234 -0.3839 0.0000
vn -0.5918 -0.5729 -0.5671
vn -0.5918 0.5729 -0.5671
vn -0.9234 0.3839 0.0000
vn -0.5918 -0.5728 0.5671
vn -0.8096 -0.4171 0.4129
vn -0.5918 0.5729 0.5671
vn -0.5917 -0.5729 -0.5671
vn -0.5918 -0.5729 0.5671
vn 0.0000 1.0000 0.0000
s off
f 3/1/1 4/2/1 2/3/1 1/4/1
f 16/5/2 22/6/2 10/7/2
f 4/8/3 8/9/3 6/10/3 2/11/3
f 13/12/4 19/13/4 12/14/4
f 1/15/3 5/16/3 7/17/3 3/18/3
f 13/12/5 12/14/5 21/19/5
f 23/20/6 9/21/6 25/22/6
f 15/23/7 9/21/7 23/20/7
f 21/19/8 31/24/8 13/12/8
f 18/25/9 17/26/9 15/23/9 16/5/9
f 17/26/9 9/21/9 15/23/9
f 30/27/10 32/28/10 16/5/10 15/23/10
f 10/7/9 18/25/9 16/5/9
f 20/29/11 19/13/11 13/12/11 14/30/11
f 14/30/12 13/12/12 31/24/12 29/31/12
f 66/32/1 68/33/1 32/28/1 30/27/1
f 10/7/13 22/6/13 28/34/13
f 59/35/14 66/32/14 30/27/14 23/20/14
f 15/23/15 23/20/15 30/27/15
f 62/36/6 26/37/6 24/38/6 60/39/6
f 16/5/16 32/28/16 22/6/16
f 68/33/17 58/40/17 22/6/17 32/28/17
f 21/19/13 12/14/13 27/41/13
f 64/42/13 28/34/13 22/6/13 58/40/13
f 11/43/11 20/29/11 14/30/11
f 11/43/6 24/38/6 26/37/6
f 24/38/18 14/30/18 29/31/18
f 14/30/19 24/38/19 11/43/19
f 40/44/2 46/45/2 34/46/2
f 37/47/11 43/48/11 36/49/11
f 37/47/5 36/49/5 45/50/5
f 47/51/6 33/52/6 49/53/6
f 39/54/7 33/52/7 47/51/7
f 45/50/20 55/55/20 37/47/20
f 42/56/9 41/57/9 39/54/9 40/44/9
f 41/57/9 33/52/9 39/54/9
f 54/58/10 56/59/10 40/44/10 39/54/10
f 34/46/9 42/56/9 40/44/9
f 44/60/11 43/48/11 37/47/11 38/61/11
f 38/61/12 37/47/12 55/55/12 53/62/12
f 53/62/1 55/55/1 56/59/1 54/58/1
f 34/46/13 46/45/13 52/63/13
f 48/64/14 53/62/14 54/58/14 47/51/14
f 39/54/21 47/51/21 54/58/21
f 49/53/6 50/65/6 48/64/6 47/51/6
f 40/44/16 56/59/16 46/45/16
f 55/55/17 45/50/17 46/45/17 56/59/17
f 45/50/13 36/49/13 51/66/13
f 51/66/13 52/63/13 46/45/13 45/50/13
f 35/67/11 44/60/11 38/61/11
f 35/67/6 48/64/6 50/65/6
f 48/64/22 38/61/22 53/62/22
f 38/61/19 48/64/19 35/67/19
f 27/41/13 63/68/13 57/69/13 21/19/13
f 63/70/13 64/71/13 58/72/13 57/73/13
f 31/24/17 21/19/17 57/69/17 67/74/17
f 67/75/17 57/73/17 58/72/17 68/76/17
f 25/22/6 61/77/6 59/35/6 23/20/6
f 61/78/6 62/79/6 60/80/6 59/81/6
f 24/38/14 29/31/14 65/82/14 60/39/14
f 60/80/14 65/83/14 66/84/14 59/81/14
f 29/31/1 31/24/1 67/74/1 65/82/1
f 65/83/1 67/75/1 68/76/1 66/84/1
f 76/85/2 82/86/2 70/87/2
f 73/88/11 79/89/11 72/90/11
f 73/88/5 72/90/5 81/91/5
f 83/92/6 69/93/6 85/94/6
f 75/95/7 69/93/7 83/92/7
f 81/91/8 91/96/8 73/88/8
f 78/97/9 77/98/9 75/95/9 76/85/9
f 77/98/9 69/93/9 75/95/9
f 90/99/10 92/100/10 76/85/10 75/95/10
f 70/87/9 78/97/9 76/85/9
f 80/101/11 79/89/11 73/88/11 74/102/11
f 74/102/12 73/88/12 91/96/12 89/103/12
f 102/104/1 104/105/1 92/100/1 90/99/1
f 70/87/13 82/86/13 88/106/13
f 95/107/14 102/104/14 90/99/14 83/92/14
f 75/95/15 83/92/15 90/99/15
f 98/108/6 86/109/6 84/110/6 96/111/6
f 76/85/16 92/100/16 82/86/16
f 104/105/17 94/112/17 82/86/17 92/100/17
f 81/91/13 72/90/13 87/113/13
f 100/114/13 88/106/13 82/86/13 94/112/13
f 71/115/11 80/101/11 74/102/11
f 71/115/6 84/110/6 86/109/6
f 84/110/18 74/102/18 89/103/18
f 74/102/19 84/110/19 71/115/19
f 87/113/13 99/116/13 93/117/13 81/91/13
f 99/118/13 100/119/13 94/120/13 93/121/13
f 91/96/17 81/91/17 93/117/17 103/122/17
f 103/123/17 93/121/17 94/120/17 104/124/17
f 85/94/6 97/125/6 95/107/6 83/92/6
f 97/126/6 98/127/6 96/128/6 95/129/6
f 84/110/14 89/103/14 101/130/14 96/111/14
f 96/128/14 101/131/14 102/132/14 95/129/14
f 89/103/1 91/96/1 103/122/1 101/130/1
f 101/131/1 103/123/1 104/124/1 102/132/1
f 112/133/2 118/134/2 106/135/2
f 109/136/11 115/137/11 108/138/11
f 109/136/5 108/138/5 117/139/5
f 119/140/6 105/141/6 121/142/6
f 111/143/7 105/141/7 119/140/7
f 117/139/20 127/144/20 109/136/20
f 114/145/9 113/146/9 111/143/9 112/133/9
f 113/146/9 105/141/9 111/143/9
f 126/147/10 128/148/10 112/133/10 111/143/10
f 106/135/9 114/145/9 112/133/9
f 116/149/11 115/137/11 109/136/11 110/150/11
f 110/150/12 109/136/12 127/144/12 125/151/12
f 125/151/1 127/144/1 128/148/1 126/147/1
f 106/135/13 118/134/13 124/152/13
f 120/153/14 125/151/14 126/147/14 119/140/14
f 111/143/21 119/140/21 126/147/21
f 121/142/6 122/154/6 120/153/6 119/140/6
f 112/133/16 128/148/16 118/134/16
f 127/144/17 117/139/17 118/134/17 128/148/17
f 117/139/13 108/138/13 123/155/13
f 123/155/13 124/152/13 118/134/13 117/139/13
f 107/156/11 116/149/11 110/150/11
f 107/156/6 120/153/6 122/154/6
f 120/153/22 110/150/22 125/151/22
f 110/150/19 120/153/19 107/156/19
f 6/10/1 8/9/1 130/157/1 129/158/1
f 129/158/23 130/157/23 132/159/23 131/160/23
