# Blender v2.79 (sub 0) OBJ File: 'car_lab.blend'
# www.blender.org
mtllib car_cubicle.mtl
o Cube.010
v -1.339373 -1.800888 21.579594
v -1.339373 -2.144893 21.579594
v -1.339373 -1.800888 21.698002
v -1.339373 -2.144893 21.698002
v -1.457783 -1.800888 21.579594
v -1.457783 -2.144893 21.579594
v -1.457783 -1.800888 21.698002
v -1.457783 -2.144893 21.698002
v -4.278343 -1.806716 21.842489
v -4.278343 1.782771 21.842489
v -4.278343 -1.806716 20.237518
v -4.278343 1.782771 20.237518
v -1.203071 -1.806716 21.842489
v -1.203071 1.782771 21.842489
v -1.203071 -1.806716 20.237518
v -1.203071 1.782771 20.237518
v -1.339373 -1.800888 20.363945
v -1.339373 -2.144893 20.363945
v -1.339373 -1.800888 20.482353
v -1.339373 -2.144893 20.482353
v -1.457783 -1.800888 20.363945
v -1.457783 -2.144893 20.363945
v -1.457783 -1.800888 20.482353
v -1.457783 -2.144893 20.482353
v -4.022009 -1.800888 21.579594
v -4.022009 -2.144893 21.579594
v -4.022009 -1.800888 21.698002
v -4.022009 -2.144893 21.698002
v -4.140419 -1.800888 21.579594
v -4.140419 -2.144893 21.579594
v -4.140419 -1.800888 21.698002
v -4.140419 -2.144893 21.698002
v -4.022009 -1.800888 20.363945
v -4.022009 -2.144893 20.363945
v -4.022009 -1.800888 20.482353
v -4.022009 -2.144893 20.482353
v -4.140419 -1.800888 20.363945
v -4.140419 -2.144893 20.363945
v -4.140419 -1.800888 20.482353
v -4.140419 -2.144893 20.482353
v -1.587480 -1.806716 20.237518
v -1.971889 -1.806716 20.237518
v -2.356298 -1.806716 20.237518
v -2.740707 -1.806716 20.237518
v -3.125116 -1.806716 20.237518
v -3.509525 -1.806716 20.237518
v -3.893934 -1.806716 20.237518
v -3.893934 1.782771 20.237518
v -3.509525 1.782771 20.237518
v -3.125116 1.782771 20.237518
v -2.740707 1.782771 20.237518
v -2.356298 1.782771 20.237518
v -1.971889 1.782771 20.237518
v -1.587480 1.782771 20.237518
v -3.893934 -1.806716 21.842489
v -3.509525 -1.806716 21.842489
v -3.125116 -1.806716 21.842489
v -2.740707 -1.806716 21.842489
v -2.356298 -1.806716 21.842489
v -1.971889 -1.806716 21.842489
v -1.587480 -1.806716 21.842489
v -1.587480 1.782771 21.842489
v -1.971889 1.782771 21.842489
v -2.356298 1.782771 21.842489
v -2.740707 1.782771 21.842489
v -3.125116 1.782771 21.842489
v -3.509525 1.782771 21.842489
v -3.893934 1.782771 21.842489
v -4.278343 -1.407884 21.842489
v -4.278343 -1.009052 21.842489
v -4.278343 -0.610220 21.842489
v -4.278343 -0.211388 21.842489
v -4.278343 0.187443 21.842489
v -4.278343 0.586275 21.842489
v -4.278343 0.985107 21.842489
v -4.278343 1.383939 21.842489
v -4.278343 1.383939 20.237518
v -4.278343 0.985107 20.237518
v -4.278343 0.586275 20.237518
v -4.278343 0.187443 20.237518
v -4.278343 -0.211388 20.237518
v -4.278343 -0.610220 20.237518
v -4.278343 -1.009052 20.237518
v -4.278343 -1.407884 20.237518
v -1.203071 1.383939 20.237518
v -1.203071 0.985107 20.237518
v -1.203071 0.586275 20.237518
v -1.203071 0.187443 20.237518
v -1.203071 -0.211388 20.237518
v -1.203071 -0.610220 20.237518
v -1.203071 -1.009052 20.237518
v -1.203071 -1.407884 20.237518
v -1.203071 1.383939 21.842489
v -1.203071 0.985107 21.842489
v -1.203071 0.586275 21.842489
v -1.203071 0.187443 21.842489
v -1.203071 -0.211388 21.842489
v -1.203071 -0.610220 21.842489
v -1.203071 -1.009052 21.842489
v -1.203071 -1.407884 21.842489
v -3.893934 1.383939 20.237518
v -3.893934 0.985107 20.237518
v -3.893934 0.586275 20.237518
v -3.893934 0.187443 20.237518
v -3.893934 -0.211388 20.237518
v -3.893934 -0.610220 20.237518
v -3.893934 -1.009052 20.237518
v -3.893934 -1.407884 20.237518
v -3.509525 1.383939 20.237518
v -3.509525 0.985107 20.237518
v -3.509525 0.586275 20.237518
v -3.509525 0.187443 20.237518
v -3.509525 -0.211388 20.237518
v -3.509525 -0.610220 20.237518
v -3.509525 -1.009052 20.237518
v -3.509525 -1.407884 20.237518
v -3.125116 1.383939 20.237518
v -3.125116 0.985107 20.237518
v -3.125116 0.586275 20.237518
v -3.125116 0.187443 20.237518
v -3.125116 -0.211388 20.237518
v -3.125116 -0.610220 20.237518
v -3.125116 -1.009052 20.237518
v -3.125116 -1.407884 20.237518
v -2.740707 1.383939 20.237518
v -2.740707 0.985107 20.237518
v -2.740707 0.586275 20.237518
v -2.740707 0.187443 20.237518
v -2.740707 -0.211388 20.237518
v -2.740707 -0.610220 20.237518
v -2.740707 -1.009052 20.237518
v -2.740707 -1.407884 20.237518
v -2.356298 1.383939 20.237518
v -2.356298 0.985107 20.237518
v -2.356298 0.586275 20.237518
v -2.356298 0.187443 20.237518
v -2.356298 -0.211388 20.237518
v -2.356298 -0.610220 20.237518
v -2.356298 -1.009052 20.237518
v -2.356298 -1.407884 20.237518
v -1.971889 1.383939 20.237518
v -1.971889 0.985107 20.237518
v -1.971889 0.586275 20.237518
v -1.971889 0.187443 20.237518
v -1.971889 -0.211388 20.237518
v -1.971889 -0.610220 20.237518
v -1.971889 -1.009052 20.237518
v -1.971889 -1.407884 20.237518
v -1.587480 1.383939 20.237518
v -1.587480 0.985107 20.237518
v -1.587480 0.586275 20.237518
v -1.587480 0.187443 20.237518
v -1.587480 -0.211388 20.237518
v -1.587480 -0.610220 20.237518
v -1.587480 -1.009052 20.237518
v -1.587480 -1.407884 20.237518
vt 0.906052 0.496926
vt 0.842339 0.585410
vt 0.842339 0.466643
vt 0.932316 0.532121
vt 0.842339 0.465502
vt 0.906052 0.377018
vt 0.867671 0.398977
vt 0.957649 0.464455
vt 0.842339 0.346735
vt 0.932316 0.412213
vt 0.957649 0.345688
vt 0.893936 0.434172
vt 0.957648 0.465596
vt 0.893936 0.554080
vt 0.764828 0.880262
vt 0.764828 0.986917
vt 0.451286 0.986917
vt 0.451286 0.880262
vt 0.671880 0.886621
vt 0.671880 0.997799
vt 0.767442 0.997799
vt 0.767442 0.886621
vt 0.451286 0.880262
vt 0.451286 0.986917
vt 0.764828 0.986917
vt 0.764828 0.880262
vt 0.754450 0.298345
vt 0.754450 0.224902
vt 0.447814 0.224902
vt 0.447814 0.298345
vt 0.754450 0.739002
vt 0.754450 0.812445
vt 0.447814 0.812445
vt 0.447814 0.739002
vt 0.867671 0.518885
vt 0.957648 0.584363
vt 0.950519 0.849548
vt 0.862036 0.785835
vt 0.883994 0.824216
vt 0.949472 0.734239
vt 0.830705 0.618835
vt 0.919189 0.682548
vt 0.897230 0.644167
vt 0.831752 0.734145
vt 0.949472 0.618835
vt 0.883994 0.708812
vt 0.950519 0.734145
vt 0.862036 0.670432
vt 0.919189 0.797951
vt 0.830705 0.734239
vt 0.831752 0.849548
vt 0.897230 0.759571
vt 0.754450 0.224902
vt 0.754450 0.298345
vt 0.447814 0.298345
vt 0.447814 0.224902
vt 0.754450 0.371788
vt 0.447814 0.371788
vt 0.754450 0.445230
vt 0.447814 0.445230
vt 0.754450 0.518673
vt 0.447814 0.518673
vt 0.754450 0.592116
vt 0.447814 0.592116
vt 0.754450 0.665559
vt 0.447814 0.665559
vt 0.754450 0.812445
vt 0.754450 0.739002
vt 0.447814 0.739002
vt 0.447814 0.812445
vt 0.754450 0.665559
vt 0.447814 0.665559
vt 0.754450 0.592116
vt 0.447814 0.592116
vt 0.754450 0.518673
vt 0.447814 0.518673
vt 0.754450 0.445230
vt 0.447814 0.445230
vt 0.754450 0.371788
vt 0.447814 0.371788
vt 0.002943 0.886621
vt 0.002943 0.997799
vt 0.098505 0.997799
vt 0.098505 0.886621
vt 0.194068 0.997799
vt 0.194068 0.886621
vt 0.289630 0.997799
vt 0.289630 0.886621
vt 0.385193 0.997799
vt 0.385193 0.886621
vt 0.480755 0.997799
vt 0.480755 0.886621
vt 0.576317 0.997799
vt 0.576317 0.886621
vt 0.576317 -0.002806
vt 0.576317 0.108372
vt 0.671880 0.108372
vt 0.671880 -0.002806
vt 0.576317 0.219551
vt 0.671880 0.219551
vt 0.576317 0.330729
vt 0.671880 0.330729
vt 0.576317 0.441907
vt 0.671880 0.441907
vt 0.576317 0.553086
vt 0.671880 0.553086
vt 0.576317 0.664264
vt 0.671880 0.664264
vt 0.576317 0.775442
vt 0.671880 0.775442
vt 0.480755 -0.002806
vt 0.480755 0.108372
vt 0.480755 0.219551
vt 0.480755 0.330729
vt 0.480755 0.441907
vt 0.480755 0.553086
vt 0.480755 0.664264
vt 0.480755 0.775442
vt 0.385193 -0.002806
vt 0.385193 0.108372
vt 0.385193 0.219551
vt 0.385193 0.330729
vt 0.385193 0.441907
vt 0.385193 0.553086
vt 0.385193 0.664264
vt 0.385193 0.775442
vt 0.289630 -0.002806
vt 0.289630 0.108372
vt 0.289630 0.219551
vt 0.289630 0.330729
vt 0.289630 0.441907
vt 0.289630 0.553086
vt 0.289630 0.664264
vt 0.289630 0.775442
vt 0.194068 -0.002806
vt 0.194068 0.108372
vt 0.194068 0.219551
vt 0.194068 0.330729
vt 0.194068 0.441907
vt 0.194068 0.553086
vt 0.194068 0.664264
vt 0.194068 0.775442
vt 0.098505 -0.002806
vt 0.098505 0.108372
vt 0.098505 0.219551
vt 0.098505 0.330729
vt 0.098505 0.441907
vt 0.098505 0.553086
vt 0.098505 0.664264
vt 0.098505 0.775442
vt 0.002943 -0.002806
vt 0.002943 0.108372
vt 0.002943 0.219551
vt 0.002943 0.330729
vt 0.002943 0.441907
vt 0.002943 0.553086
vt 0.002943 0.664264
vt 0.002943 0.775442
vt 0.451286 0.027021
vt 0.451286 0.133676
vt 0.764828 0.133676
vt 0.764828 0.027021
vt 0.451286 0.240331
vt 0.764828 0.240331
vt 0.451286 0.346986
vt 0.764828 0.346986
vt 0.451286 0.453641
vt 0.764828 0.453641
vt 0.451286 0.560296
vt 0.764828 0.560296
vt 0.451286 0.666952
vt 0.764828 0.666952
vt 0.451286 0.773607
vt 0.764828 0.773607
vt 0.767442 0.108372
vt 0.767442 -0.002806
vt 0.767442 0.219551
vt 0.767442 0.330729
vt 0.767442 0.441907
vt 0.767442 0.553086
vt 0.767442 0.664264
vt 0.767442 0.775442
vt 0.764828 0.027021
vt 0.764828 0.133676
vt 0.451286 0.133676
vt 0.451286 0.027021
vt 0.764828 0.240331
vt 0.451286 0.240331
vt 0.764828 0.346986
vt 0.451286 0.346986
vt 0.764828 0.453641
vt 0.451286 0.453641
vt 0.764828 0.560297
vt 0.451286 0.560296
vt 0.764828 0.666952
vt 0.451286 0.666952
vt 0.764828 0.773607
vt 0.451286 0.773607
vn -1.0000 0.0000 0.0000
vn 0.0000 0.0000 -1.0000
vn 0.0000 0.0000 1.0000
vn 1.0000 0.0000 0.0000
vn 0.0000 -1.0000 0.0000
vn 0.0000 1.0000 0.0000
usemtl None
s off
f 24/1/1 23/2/1 21/3/1 22/4/1
f 6/5/2 5/6/2 1/7/2 2/8/2
f 8/9/1 7/10/1 5/6/1 6/5/1
f 4/11/3 3/12/3 7/10/3 8/9/3
f 22/4/2 21/3/2 17/13/2 18/14/2
f 2/8/4 1/7/4 3/12/4 4/11/4
f 76/15/1 10/16/1 12/17/1 77/18/1
f 149/19/2 54/20/2 16/21/2 85/22/2
f 85/23/4 16/24/4 14/25/4 93/26/4
f 41/27/5 15/28/5 13/29/5 61/30/5
f 48/31/6 12/32/6 10/33/6 68/34/6
f 20/35/3 19/36/3 23/2/3 24/1/3
f 18/14/4 17/13/4 19/36/4 20/35/4
f 40/37/1 39/38/1 37/39/1 38/40/1
f 30/41/2 29/42/2 25/43/2 26/44/2
f 32/45/1 31/46/1 29/42/1 30/41/1
f 28/47/3 27/48/3 31/46/3 32/45/3
f 38/40/2 37/39/2 33/49/2 34/50/2
f 26/44/4 25/43/4 27/48/4 28/47/4
f 36/51/3 35/52/3 39/38/3 40/37/3
f 34/50/4 33/49/4 35/52/4 36/51/4
f 16/53/6 54/54/6 62/55/6 14/56/6
f 54/54/6 53/57/6 63/58/6 62/55/6
f 53/57/6 52/59/6 64/60/6 63/58/6
f 52/59/6 51/61/6 65/62/6 64/60/6
f 51/61/6 50/63/6 66/64/6 65/62/6
f 50/63/6 49/65/6 67/66/6 66/64/6
f 49/65/6 48/31/6 68/34/6 67/66/6
f 11/67/5 47/68/5 55/69/5 9/70/5
f 47/68/5 46/71/5 56/72/5 55/69/5
f 46/71/5 45/73/5 57/74/5 56/72/5
f 45/73/5 44/75/5 58/76/5 57/74/5
f 44/75/5 43/77/5 59/78/5 58/76/5
f 43/77/5 42/79/5 60/80/5 59/78/5
f 42/79/5 41/27/5 61/30/5 60/80/5
f 77/81/2 12/82/2 48/83/2 101/84/2
f 101/84/2 48/83/2 49/85/2 109/86/2
f 109/86/2 49/85/2 50/87/2 117/88/2
f 117/88/2 50/87/2 51/89/2 125/90/2
f 125/90/2 51/89/2 52/91/2 133/92/2
f 133/92/2 52/91/2 53/93/2 141/94/2
f 141/94/2 53/93/2 54/20/2 149/19/2
f 42/95/2 148/96/2 156/97/2 41/98/2
f 148/96/2 147/99/2 155/100/2 156/97/2
f 147/99/2 146/101/2 154/102/2 155/100/2
f 146/101/2 145/103/2 153/104/2 154/102/2
f 145/103/2 144/105/2 152/106/2 153/104/2
f 144/105/2 143/107/2 151/108/2 152/106/2
f 143/107/2 142/109/2 150/110/2 151/108/2
f 142/109/2 141/94/2 149/19/2 150/110/2
f 43/111/2 140/112/2 148/96/2 42/95/2
f 140/112/2 139/113/2 147/99/2 148/96/2
f 139/113/2 138/114/2 146/101/2 147/99/2
f 138/114/2 137/115/2 145/103/2 146/101/2
f 137/115/2 136/116/2 144/105/2 145/103/2
f 136/116/2 135/117/2 143/107/2 144/105/2
f 135/117/2 134/118/2 142/109/2 143/107/2
f 134/118/2 133/92/2 141/94/2 142/109/2
f 44/119/2 132/120/2 140/112/2 43/111/2
f 132/120/2 131/121/2 139/113/2 140/112/2
f 131/121/2 130/122/2 138/114/2 139/113/2
f 130/122/2 129/123/2 137/115/2 138/114/2
f 129/123/2 128/124/2 136/116/2 137/115/2
f 128/124/2 127/125/2 135/117/2 136/116/2
f 127/125/2 126/126/2 134/118/2 135/117/2
f 126/126/2 125/90/2 133/92/2 134/118/2
f 45/127/2 124/128/2 132/120/2 44/119/2
f 124/128/2 123/129/2 131/121/2 132/120/2
f 123/129/2 122/130/2 130/122/2 131/121/2
f 122/130/2 121/131/2 129/123/2 130/122/2
f 121/131/2 120/132/2 128/124/2 129/123/2
f 120/132/2 119/133/2 127/125/2 128/124/2
f 119/133/2 118/134/2 126/126/2 127/125/2
f 118/134/2 117/88/2 125/90/2 126/126/2
f 46/135/2 116/136/2 124/128/2 45/127/2
f 116/136/2 115/137/2 123/129/2 124/128/2
f 115/137/2 114/138/2 122/130/2 123/129/2
f 114/138/2 113/139/2 121/131/2 122/130/2
f 113/139/2 112/140/2 120/132/2 121/131/2
f 112/140/2 111/141/2 119/133/2 120/132/2
f 111/141/2 110/142/2 118/134/2 119/133/2
f 110/142/2 109/86/2 117/88/2 118/134/2
f 47/143/2 108/144/2 116/136/2 46/135/2
f 108/144/2 107/145/2 115/137/2 116/136/2
f 107/145/2 106/146/2 114/138/2 115/137/2
f 106/146/2 105/147/2 113/139/2 114/138/2
f 105/147/2 104/148/2 112/140/2 113/139/2
f 104/148/2 103/149/2 111/141/2 112/140/2
f 103/149/2 102/150/2 110/142/2 111/141/2
f 102/150/2 101/84/2 109/86/2 110/142/2
f 11/151/2 84/152/2 108/144/2 47/143/2
f 84/152/2 83/153/2 107/145/2 108/144/2
f 83/153/2 82/154/2 106/146/2 107/145/2
f 82/154/2 81/155/2 105/147/2 106/146/2
f 81/155/2 80/156/2 104/148/2 105/147/2
f 80/156/2 79/157/2 103/149/2 104/148/2
f 79/157/2 78/158/2 102/150/2 103/149/2
f 78/158/2 77/81/2 101/84/2 102/150/2
f 15/159/4 92/160/4 100/161/4 13/162/4
f 92/160/4 91/163/4 99/164/4 100/161/4
f 91/163/4 90/165/4 98/166/4 99/164/4
f 90/165/4 89/167/4 97/168/4 98/166/4
f 89/167/4 88/169/4 96/170/4 97/168/4
f 88/169/4 87/171/4 95/172/4 96/170/4
f 87/171/4 86/173/4 94/174/4 95/172/4
f 86/173/4 85/23/4 93/26/4 94/174/4
f 41/98/2 156/97/2 92/175/2 15/176/2
f 156/97/2 155/100/2 91/177/2 92/175/2
f 155/100/2 154/102/2 90/178/2 91/177/2
f 154/102/2 153/104/2 89/179/2 90/178/2
f 153/104/2 152/106/2 88/180/2 89/179/2
f 152/106/2 151/108/2 87/181/2 88/180/2
f 151/108/2 150/110/2 86/182/2 87/181/2
f 150/110/2 149/19/2 85/22/2 86/182/2
f 9/183/1 69/184/1 84/185/1 11/186/1
f 69/184/1 70/187/1 83/188/1 84/185/1
f 70/187/1 71/189/1 82/190/1 83/188/1
f 71/189/1 72/191/1 81/192/1 82/190/1
f 72/191/1 73/193/1 80/194/1 81/192/1
f 73/193/1 74/195/1 79/196/1 80/194/1
f 74/195/1 75/197/1 78/198/1 79/196/1
f 75/197/1 76/15/1 77/18/1 78/198/1
